<?xml version="1.0" encoding="utf-8"?>
<!-- Generator: Adobe Illustrator 27.5.0, SVG Export Plug-In . SVG Version: 6.00 Build 0)  -->
<svg version="1.1" id="_x2018_ëîé_x5F_1" xmlns="http://www.w3.org/2000/svg" xmlns:xlink="http://www.w3.org/1999/xlink"
	 x="0px" y="0px" viewBox="0 0 3000 2000" style="enable-background:new 0 0 3000 2000;" xml:space="preserve">
<rect style="fill:#FFFFFF;" width="3000" height="2000"/>
<g>
	<g>
		<path style="fill:#DEEBE9;" d="M2801,408.064V1581.54c0,79.848-27.766,148.672-73.958,203.393
			c-62.695,74.262-159.338,122.575-266.613,137.322c-57.646,7.932-115.751,12.885-178.543,15.277
			c-55.746,2.144-115.186,2.29-181.286,0.745c-140.347-3.317-310.723-14.239-539.44-29.865
			c-37.694-2.572-80.993-4.152-128.231-4.942c-94.614-1.602-205.092-0.113-318.292,2.629c-27.425,0.643-55.009,1.388-82.573,2.155
			c-18.276,0.519-36.53,1.061-54.721,1.614c-53.867,1.625-107.147,3.362-158.42,5.01c-27.339,0.88-54.113,1.726-80.107,2.527
			c-4.409,0.135-8.796,0.271-13.152,0.395c-73.947,2.234-141.105,3.96-196.392,4.457c-97.892,0.88-186.154-40.494-248.263-106.903
			c-57.23-61.175-92.277-143.595-92.277-233.811V408.064c0-188.161,152.794-351.771,340.539-340.714
			c55.554,3.283,119.402,9.635,189.293,15.976c2.263,0.214,4.526,0.406,6.8,0.621c21.265,1.907,43.064,3.813,65.322,5.619
			c2.263,0.181,4.526,0.372,6.8,0.553c10.013,0.801,20.123,1.591,30.328,2.335c123.501,9.094,260.102,13.957,399.669,0.948
			c90.558-8.428,204.281-16.507,327.825-23.084c17.956-0.948,36.125-1.873,54.465-2.764c0,0,0,0,0.011,0
			c1.025-0.034,2.05-0.09,3.075-0.147c39.819-1.929,80.384-3.678,121.345-5.212h0.021c0.641-0.023,1.27-0.056,1.911-0.079
			c264.542-9.974,543.581-11.441,724.291,5.235c90.163,8.327,172.437,43.98,233.51,99.728
			c29.613,26.988,54.219,58.681,72.367,94.289c7.312,14.34,13.568,29.335,18.671,44.905C2795.385,337.953,2801,372.05,2801,408.064z
			"/>
	</g>
	<rect x="1629.478" y="989.651" style="fill:#BED5DC;" width="71.435" height="622.304"/>
	<rect x="1737.851" y="1115.718" style="fill:#BED5DC;" width="71.435" height="496.237"/>
	<rect x="1519.439" y="1115.718" style="fill:#BED5DC;" width="71.435" height="496.237"/>
	<g>
		<ellipse style="fill:#BED5DC;" cx="1503.4" cy="1611.955" rx="1084.832" ry="176.57"/>
	</g>
	<g>
		<path style="fill:#5F9386;" d="M1765.097,1179.229c-14.681,22.398-31.778,43.444-51.161,62.827
			c-74.121,74.121-172.662,114.933-277.473,114.933s-203.352-40.812-277.473-114.933c-74.109-74.109-114.921-172.65-114.921-277.461
			c0-104.823,40.812-203.364,114.921-277.473c25.377-25.377,53.614-46.842,83.98-64.107L1100.089,390.47
			c-48.732,28.548-93.6,63.245-134.052,103.698c-61.056,61.056-108.998,132.186-142.511,211.428
			c-34.734,82.102-52.346,169.24-52.346,258.999c0,89.747,17.612,176.886,52.346,258.987
			c33.513,79.242,81.455,150.372,142.511,211.428c61.056,61.056,132.186,109.01,211.428,142.523
			c82.102,34.722,169.252,52.333,258.999,52.333s176.886-17.612,258.999-52.333c79.242-33.513,150.372-81.468,211.428-142.523
			c29.158-29.158,55.313-60.601,78.345-94.138L1765.097,1179.229z"/>
	</g>
	<path style="fill:#E28569;" d="M2186.272,983.583c-2.309,83.047-19.802,163.701-52.082,239.999
		c-17.516,41.41-38.969,80.594-64.167,117.29l-220.138-161.643c41.446-63.173,63.712-137.055,63.76-214.359L2186.272,983.583z"/>
	<path style="fill:#72AA9A;" d="M2020.403,1336.455c-55.667,84.019-125.431,155.831-207.625,213.67
		c-44.606,31.393-91.836,57.97-141.325,79.581l-122.919-307.678c83.208-38.445,153.54-100.222,203.194-179.779L2020.403,1336.455z"
		/>
	<path style="fill:#96A7E2;" d="M1611.988,248.024l-68.354,264.228c-29.732-7.107-60.517-10.756-91.853-10.756
		c-68.928,0-135.141,17.66-193.493,50.826l-142.882-232.545c24.815-14.561,50.635-27.507,77.376-38.825
		c82.102-34.721,169.252-52.333,258.999-52.333C1506.328,228.617,1559.917,235.126,1611.988,248.024z"/>
	<g>
		<path style="fill:#EFAB7D;" d="M2083.307,927.571c0,0-6.115-25.229-34.265-17.662c-28.149,7.567,9.986,25.191,9.986,25.191
			L2083.307,927.571z"/>
		<path style="fill:#EFAB7D;" d="M2037.566,931.984c0,0,30.753,107.656,67.629,119.105c56.823,17.642,99.317-61.941,99.317-61.941
			l-32.325-43.673c0,0-15.632,16.337-44.002,45.153c-7.216,7.329-44.878-63.056-44.878-63.056L2037.566,931.984z"/>
		<g>
			<path style="fill:#EFAB7D;" d="M2083.307,927.571c-5.466-24.332-26.613-42.216-30.872-41.668
				c-6.003,0.771,2.353,12.382,4.51,23.453c1.867,9.578,0.07,17.15,0.07,17.15L2083.307,927.571z"/>
		</g>
		<g>
			<path style="fill:#2F1A31;" d="M2215.893,1533.851c0,0,0.403,15.347-10.712,20.27c-11.116,4.923-43.787,10.564-30.971,19.766
				c7.354,5.28,40.383-0.131,49.762-0.628c9.381-0.497,18.389,2.773,25.052-3.333c7.33-6.717-2.028-37.722-2.028-37.722
				s-7.888,4.281-15.177,4.494C2221.315,1537.005,2215.893,1533.851,2215.893,1533.851z"/>
		</g>
		<g>
			<path style="fill:#6F4975;" d="M2282.299,1144.885c-36.01,1.34-93.071,7.031-94.814,27.927
				c-1.785,21.397-25.215,138.887-22.94,189.475c2.792,62.113,16.583,141.62,38.977,176.711
				c10.179,15.951,26.843,9.788,41.947,9.588c38.994-0.518,9.316-141.032,11.132-188.105
				c1.852-47.993,42.786-187.289,42.786-187.289L2282.299,1144.885z"/>
		</g>
		<g>
			<path style="fill:#2F1A31;" d="M2427.217,1530.04c0,0,0.404,15.347-10.712,20.27c-11.116,4.923-43.787,10.564-30.971,19.766
				c7.354,5.28,40.383-0.131,49.762-0.628c9.381-0.497,18.389,2.773,25.052-3.333c7.33-6.717-2.028-37.722-2.028-37.722
				s-7.888,4.281-15.177,4.494C2432.639,1533.194,2427.217,1530.04,2427.217,1530.04z"/>
		</g>
		<g>
			<path style="fill:#6F4975;" d="M2231.888,1150.131l166.982,370.501c6.12,15.236,21.979,25.059,39.409,24.41l7.597-0.283
				c17.937-0.668,30.824-16.536,26.671-32.839l-94.772-349.694C2375.504,1154.381,2307.836,1135.68,2231.888,1150.131z"/>
		</g>
		<g>
			<path style="fill:#020202;" d="M2280.178,1258.131c-0.349,0-0.677-0.216-0.803-0.564c-2.164-6.003-4.079-11.449-5.768-16.253
				c-9.164-26.059-12.958-36.844-24.145-45.532c-0.372-0.288-0.44-0.824-0.151-1.197c0.289-0.372,0.824-0.439,1.197-0.151
				c11.584,8.994,15.426,19.919,24.708,46.312c1.689,4.802,3.603,10.245,5.764,16.241c0.16,0.443-0.07,0.932-0.514,1.092
				C2280.372,1258.115,2280.274,1258.131,2280.178,1258.131z"/>
		</g>
		<path style="fill:#69A1C4;" d="M2146.342,990.603c0,0-12.946-32.924,37.135-62.905c0.02-0.012,0.043-0.019,0.065-0.029
			c9.049-4.562,17.695-9.127,27.317-11.705c145.874-39.078,174.295,244.834,174.295,244.834
			c-85.767,26.043-205.142,25.745-197.669,12.015c0-76.803,2.517-119.185-9.174-146.108
			C2174.647,1018.266,2146.342,990.603,2146.342,990.603z"/>
		<path style="fill:#69A1C4;" d="M2188.361,925.235c0,0-25.856,10.384-50.823,43.016c0,0,0,34.105,46.905,63.545
			C2207.544,1046.296,2188.361,925.235,2188.361,925.235z"/>
		<path style="fill:#F7B686;" d="M2184.437,850.561l7.105,33.153l3.863,17.99l0.408,1.902l1.352,6.303
			c0.915,4.277,1.879,9.25-0.315,13.731c-0.891,1.82-10.007,9.534,0.278,11.235c12.817,2.117,32.349-11.125,37.925-23.31
			c-0.065,0.001-14.247-2.035-17.784-7.772l-10.938-17.724l-3.182-5.165L2184.437,850.561z"/>
		<path style="fill:#2F1A31;" d="M2195.914,899.731l-0.508,1.973l0.408,1.902l1.352,6.303c9.064-5.356,12.326-17.385,12.326-17.385
			L2195.914,899.731z"/>
		<g>
			<path style="fill:#56335B;" d="M2145.996,860.229c0,0,1.655,8.358,8.094,16.725c6.44,8.367,4.834-19.082,4.834-19.082
				L2145.996,860.229z"/>
			
				<ellipse transform="matrix(0.9492 -0.3148 0.3148 0.9492 -163.0887 731.376)" style="fill:#F7B686;" cx="2182.992" cy="870.654" rx="30.268" ry="36.497"/>
			<path style="fill:#2F1A31;" d="M2207.85,851.393l-13.85,5.014c-3.045,1.102-6.451,0.829-9.209-0.868
				c-4.748-2.922-13.386-4.67-23.144,7.012c-13.024,15.594-28.061-0.301-33.688-7.638c-5.743-7.488-0.501-16.985,9.242-16.805
				c9.744,0.18,1.678-7.922,8.702-12.596c13.126-8.734,21.004,0.829,32.345-5.094c14.869-7.767,47.456-9.382,47.492,23.392
				L2207.85,851.393z"/>
			<g>
				<path style="fill:#060633;" d="M2177.125,871.25c-0.176,0.062-0.377,0.044-0.544-0.067c-0.282-0.187-0.36-0.566-0.173-0.849
					c0.11-0.166,2.299-4.261,7.54-3.06c0.33,0.076,0.545,0.394,0.476,0.726c-0.069,0.332-0.386,0.471-0.726,0.476
					c-3.395,0.044-6.174,2.398-6.266,2.536C2177.355,871.126,2177.247,871.207,2177.125,871.25z"/>
			</g>
			<g>
				<path style="fill:#060633;" d="M2159.788,878.87c-0.136,0.046-0.298,0.011-0.437-0.111c-0.235-0.206-0.319-0.583-0.186-0.843
					c0.078-0.153,1.594-3.966,5.839-2.355c0.268,0.102,0.456,0.43,0.42,0.748c-0.037,0.318-0.282,0.427-0.552,0.403
					c-2.703-0.241-4.786,1.823-4.852,1.95C2159.964,878.769,2159.882,878.839,2159.788,878.87z"/>
			</g>
			<path style="fill:#56335B;" d="M2225.74,843.812c0,0,0.406,24.06-11.812,31.752c0,0,3.194-20.031-23.234-18.507
				C2190.695,857.057,2209.365,844.097,2225.74,843.812z"/>
			<path style="fill:#F7B686;" d="M2212.783,863.469c-1.912,3.094-5.703,4.218-8.468,2.509s-3.457-5.601-1.545-8.695
				c1.912-3.094,5.703-4.218,8.468-2.509C2214.002,856.482,2214.694,860.375,2212.783,863.469z"/>
			<g>
				<path style="fill:#2F1A31;" d="M2170.258,819.349c-1.177,0-2.541-0.322-4.084-1.19c-0.291-0.161-0.397-0.521-0.229-0.818
					c0.149-0.31,0.508-0.397,0.812-0.223c5.113,2.863,7.666-1.029,7.771-1.202c0.174-0.297,0.552-0.359,0.824-0.186
					c0.279,0.186,0.359,0.558,0.18,0.83C2175.513,816.598,2173.685,819.349,2170.258,819.349z"/>
			</g>
			<g>
				<path style="fill:#FFFFFF;" d="M2148.822,856.854c-5.894,0-13.231-1.066-16.075-5.912c-1.432-2.442-1.81-4.35-1.153-5.863
					c1.041-2.404,4.48-3.185,7.517-3.867c0.446-0.099,0.886-0.198,1.301-0.298l0.099,0.397c-0.421,0.099-0.862,0.198-1.308,0.31
					c-2.944,0.657-6.278,1.413-7.232,3.619c-0.601,1.376-0.229,3.173,1.134,5.503c4.815,8.18,23.766,5.069,23.958,5.057l0.074,0.397
					C2156.798,856.26,2153.209,856.854,2148.822,856.854z"/>
			</g>
			<g>
				<path style="fill:#FFFFFF;" d="M2167.128,826.526c-5.342,0-8.688-1.463-8.757-1.5l0.174-0.372
					c0.118,0.05,12.326,5.354,27.435-4.648l0.223,0.347C2178.816,825.249,2172.104,826.526,2167.128,826.526z"/>
			</g>
			<path style="fill:#060633;" d="M2169.438,882.203c0.719,1.12,0.453,2.572-0.594,3.244c-1.047,0.672-2.478,0.309-3.197-0.81
				c-0.719-1.12-0.453-2.572,0.594-3.244C2167.288,880.72,2168.719,881.083,2169.438,882.203z"/>
			<path style="fill:#060633;" d="M2185.778,876.474c0.326,1.29-0.386,2.583-1.592,2.888c-1.206,0.305-2.448-0.493-2.774-1.782
				c-0.327-1.29,0.386-2.583,1.592-2.888S2185.451,875.185,2185.778,876.474z"/>
			<g>
				<path style="fill:#060633;" d="M2189.062,890.859c1.548-2.91,2.597-5.361,3.013-8.626c0.132-1.034-1.493-1.024-1.624,0
					c-0.423,2.811-1.354,5.413-2.792,7.807C2187.169,890.962,2188.57,891.783,2189.062,890.859L2189.062,890.859z"/>
			</g>
		</g>
		<g>
			<g>
				<path style="fill:#EDF4F3;" d="M1812.901,892.81c0,0,138.701-68.191,186.032-88.495c47.331-20.304,192.33-73.813,192.33-73.813
					s-101.305-10.2-212.079,36.463C1922.229,790.958,1867.184,833.88,1812.901,892.81z"/>
				<path style="fill:#2F1A31;" d="M2141.949,1133.933l-1.311,0.562c-3.737,1.603-8.107-0.143-9.71-3.88l-161.797-377.171
					c-1.603-3.737,0.143-8.107,3.88-9.71l1.311-0.562c3.737-1.603,8.107,0.143,9.71,3.88l161.796,377.171
					C2147.433,1127.96,2145.687,1132.33,2141.949,1133.933z"/>
			</g>
			<path style="fill:#EDF4F3;" d="M1959.084,788.084c0,0,35.511-8.985,51.717-22.185l10.087,29.374l-51.639,22.402L1959.084,788.084
				z"/>
		</g>
		<g>
			<g>
				<g>
					<path style="fill:#F7B686;" d="M2121.095,1049.252c0,0,0.795-27.05-10.72-37.928c-11.516-10.878-34.449-16.066-28.743-7.808
						c5.706,8.259,15.913,16.797,15.913,16.797s-22.663-17.216-24.394-10.172c-1.731,7.044,18.123,21.827,18.123,21.827
						s-28.6-18.338-28.081-11.154c0.52,7.184,22.344,20.96,22.344,20.96s-27.291-15.998-26.492-7.668s22.639,13.074,20.908,20.118
						c-1.731,7.044,2.014,29.071,21.006,36.274L2121.095,1049.252z"/>
				</g>
				<g>
					<path style="fill:#DD8964;" d="M2104.611,1029.234c-0.434-4.573-7.276-8.378-7.344-8.416l0.558-1.016
						c0.303,0.161,7.455,4.127,7.951,9.333L2104.611,1029.234z"/>
				</g>
				<g>
					<path style="fill:#DD8964;" d="M2099.852,1042.732c-1.989-6.581-8.781-10.201-8.85-10.238l0.545-1.041
						c0.298,0.161,7.288,3.879,9.42,10.932L2099.852,1042.732z"/>
				</g>
				<g>
					<path style="fill:#DD8964;" d="M2093.537,1051.73c-0.062-4.896-8.199-9.395-8.28-9.444l0.558-1.016
						c0.36,0.186,8.825,4.871,8.887,10.436L2093.537,1051.73z"/>
				</g>
			</g>
			<g>
				<path style="fill:#F7B686;" d="M2096.364,1072.313l7.355-28.882c2.041-5.579,11.736,0.017,17.322,1.482
					c28.408,7.45,51.759,0.67,68.217-10.967c22.852-16.159,29.563-53.754,34.226-77.992c2.386-12.404,9.01-20.223,25.904-21.667
					c7.015-0.599,12.825-0.102,27.56,5.8c7.119,2.851,12.806,7.113,12.067,13.517c-1.157,10.024-2.579,17.787-7.58,35.149
					c-11.881,41.237-32.024,74.657-60.586,93.219c-30.337,19.715-70.94,21.914-119.889,8.526
					C2094.949,1088.854,2094.161,1078.334,2096.364,1072.313z"/>
			</g>
			<g style="opacity:0.5;">
				<path style="fill:#E08B65;" d="M2202.935,1081.018c-0.682,0-1.333-0.074-1.952-0.223c-1.537-0.384-2.733-1.215-3.439-2.417
					c-1.933-3.285,0.26-8.156,4.989-11.093c2.807-1.76,5.968-2.417,8.496-1.81c1.543,0.384,2.739,1.227,3.446,2.442
					c1.934,3.272-0.26,8.143-4.989,11.08C2207.36,1080.311,2205.03,1081.018,2202.935,1081.018z M2209.064,1067.087
					c-1.741,0-3.731,0.607-5.565,1.76c-3.749,2.318-5.751,6.259-4.381,8.589c0.576,0.979,1.574,1.401,2.305,1.574
					c2.027,0.545,4.698-0.074,7.096-1.574c3.75-2.318,5.751-6.259,4.382-8.602c-0.576-0.967-1.574-1.388-2.312-1.574
					C2210.112,1067.149,2209.597,1067.087,2209.064,1067.087z"/>
			</g>
		</g>
		<g>
			<path style="fill:#F7B686;" d="M2025.848,906.135c0,0-2.685-10.451,6.845-12.626c12.142-2.771,30.181,5.45,22.514,7.312
				c-6.798,1.651-14.219,1.61-14.219,1.61s23.269,0.366,21.468,5.753c-1.801,5.388-20.767,5.256-20.767,5.256
				s21.955,2.254,18.59,6.759c-3.366,4.505-16.676,4.641-16.676,4.641s17.901,0.77,13.867,5.909
				c-4.034,5.139-16.874,1.862-22.604,1.707c-5.416-0.146-7.149-3.675-6.744-8.875c0,0-2.619-5.474-1.493-8.786
				c0.432-1.27-0.782-2.576-0.89-3.523C2025.532,909.46,2025.848,906.135,2025.848,906.135z"/>
		</g>
		<g>
			<path style="fill:#E08B65;" d="M2140.047,1019.542c-0.205,0-0.384-0.161-0.403-0.372c-2.132-21.294-16.299-29.3-16.441-29.375
				c-0.198-0.112-0.272-0.359-0.161-0.558c0.105-0.198,0.347-0.223,0.545-0.161c0.149,0.087,14.687,8.279,16.863,30.019
				C2140.48,1019.344,2140.22,1019.555,2140.047,1019.542z"/>
		</g>
		<g>
			<path style="fill:#E08B65;" d="M2120.866,1056.675c-0.025,0-0.043,0-0.068-0.012c-0.223-0.037-0.365-0.248-0.328-0.471
				c1.419-8.242,0.019-14.266,0-14.315c-0.05-0.223,0.087-0.446,0.304-0.496c0.204-0.037,0.427,0.074,0.49,0.297
				c0.056,0.26,1.456,6.234,0,14.662C2121.232,1056.527,2121.059,1056.675,2120.866,1056.675z"/>
		</g>
		<path style="fill:#69A1C4;" d="M2204.511,989.148c0,0,14.013-69.441,53.267-61.576c39.253,7.865,41.609,30.478,41.609,30.478
			l-7.181,61.079C2292.207,1019.128,2236.836,1032.821,2204.511,989.148z"/>
	</g>
	<g>
		<path style="fill:#BED5DC;" d="M1950.344,1664.487c0,0-27.996-28.6-18.363-44.89c9.633-16.289,25.889,34.992,25.889,34.992
			s-8.429-60.637,9.031-61.691c17.46-1.053,0,61.691,0,61.691s6.472-14.63,12.794-15.535c6.322-0.905,4.516,12.406-6.773,25.433
			H1950.344z"/>
		<g>
			<path style="fill:#42428E;" d="M1952.347,1665.211c-1.32-1.351-32.176-33.229-20.977-52.155c1.766-2.987,3.941-4.251,6.315-4.103
				c8.205,0.942,17.191,22.322,21.845,35.064c-1.537-15.914-3.297-47.396,5.41-58.03c1.89-2.305,4.195-3.57,6.854-3.731
				c2.621-0.037,4.716,0.781,6.327,2.764c7.852,9.717,0.762,44.099-3.136,60.174c2.906-4.71,7.028-9.965,11.242-10.572
				c1.927-0.236,3.576,0.446,4.462,2.095c2.553,4.66-0.954,16.584-11.229,28.445l-1.549-1.339
				c10.101-11.663,12.871-22.669,10.981-26.127c-0.477-0.88-1.227-1.19-2.374-1.041c-5.422,0.781-11.744,12.555-13.727,17.017
				l-1.921-0.682c0.149-0.545,15.14-54.944,5.658-66.681c-1.184-1.45-2.659-2.107-4.611-1.996c-2.095,0.124-3.855,1.091-5.392,2.975
				c-11.025,13.46-3.966,65.306-3.892,65.839l-1.995,0.446c-3.65-11.527-14.941-41.632-23.184-42.574
				c-1.58-0.112-2.987,0.843-4.326,3.099c-10.399,17.575,20.37,49.354,20.68,49.676L1952.347,1665.211z"/>
		</g>
	</g>
	<g>
		<path style="fill:#BED5DC;" d="M1607.84,1727.389c0,0-23.306-23.81-15.287-37.37c8.02-13.561,21.552,29.13,21.552,29.13
			s-7.017-50.48,7.518-51.356c14.535-0.877,0,51.356,0,51.356s5.388-12.179,10.651-12.933c5.263-0.753,3.759,10.328-5.639,21.173
			H1607.84z"/>
		<g>
			<path style="fill:#42428E;" d="M1609.508,1727.988c-1.103-1.115-26.784-27.652-17.47-43.417c1.351-2.281,2.95-3.433,4.766-3.433
				c0.161,0,0.328,0,0.496,0.025c6.835,0.781,14.315,18.579,18.189,29.188c-1.283-13.25-2.745-39.463,4.505-48.313
				c1.574-1.921,3.495-2.962,5.708-3.099c2.095-0.198,3.923,0.645,5.261,2.305c6.538,8.081,0.638,36.687-2.603,50.085
				c2.417-3.929,5.844-8.304,9.345-8.8c1.71-0.211,2.987,0.384,3.724,1.735c2.126,3.892-0.793,13.82-9.352,23.686l-1.289-1.115
				c8.41-9.705,10.715-18.864,9.141-21.752c-0.39-0.731-1.016-1.066-1.977-0.868c-4.512,0.645-9.773,10.448-11.421,14.179
				l-1.605-0.57c0.13-0.459,12.605-45.747,4.71-55.514c-0.979-1.215-2.151-1.81-3.836-1.661c-1.741,0.099-3.21,0.917-4.487,2.466
				c-9.178,11.204-3.303,54.374-3.247,54.82l-1.655,0.372c-3.043-9.593-12.444-34.667-19.304-35.448
				c-1.308-0.211-2.485,0.694-3.594,2.578c-8.657,14.638,16.955,41.087,17.209,41.36L1609.508,1727.988z"/>
		</g>
	</g>
	<g>
		<path style="fill:#BED5DC;" d="M2311.547,1679.564c0,0-23.306-23.809-15.287-37.37c8.019-13.561,21.552,29.13,21.552,29.13
			s-7.017-50.48,7.518-51.357c14.535-0.877,0,51.357,0,51.357s5.388-12.179,10.651-12.933c5.263-0.753,3.759,10.328-5.639,21.173
			H2311.547z"/>
		<g>
			<path style="fill:#42428E;" d="M2313.22,1680.159c-1.103-1.115-26.79-27.652-17.47-43.417c1.351-2.281,2.95-3.433,4.76-3.433
				c0.167,0,0.334,0,0.502,0.025c6.829,0.781,14.309,18.579,18.182,29.189c-1.283-13.25-2.745-39.464,4.505-48.313
				c1.574-1.921,3.495-2.962,5.708-3.099c2.138-0.062,3.923,0.645,5.268,2.305c6.532,8.081,0.632,36.687-2.609,50.085
				c2.417-3.929,5.85-8.304,9.352-8.8c1.648-0.211,2.981,0.384,3.724,1.748c2.119,3.892-0.8,13.807-9.352,23.673l-1.289-1.116
				c8.403-9.692,10.708-18.852,9.141-21.74c-0.396-0.731-1.01-1.029-1.983-0.88c-4.512,0.644-9.773,10.448-11.421,14.179
				l-1.605-0.57c0.13-0.458,12.605-45.747,4.716-55.514c-0.911-1.128-2.057-1.673-3.489-1.673c-0.112,0-0.229,0-0.353,0.012
				c-1.741,0.099-3.21,0.917-4.487,2.466c-9.178,11.205-3.303,54.374-3.247,54.82l-1.655,0.372
				c-3.043-9.593-12.444-34.667-19.298-35.448c-0.099-0.012-0.198-0.025-0.291-0.025c-1.19,0-2.274,0.855-3.303,2.603
				c-8.664,14.65,16.955,41.087,17.209,41.36L2313.22,1680.159z"/>
		</g>
	</g>
	<g>
		<path style="fill:#BED5DC;" d="M532.791,1632.175c0,0-23.307-23.81-15.287-37.37c8.019-13.561,21.552,29.13,21.552,29.13
			s-7.017-50.48,7.518-51.356c14.535-0.877,0,51.356,0,51.356s5.388-12.179,10.651-12.933c5.263-0.753,3.759,10.328-5.639,21.173
			H532.791z"/>
		<g>
			<path style="fill:#42428E;" d="M534.463,1632.775c-1.103-1.115-26.79-27.652-17.47-43.417c1.475-2.491,3.247-3.706,5.261-3.408
				c6.829,0.781,14.309,18.579,18.182,29.176c-1.283-13.25-2.745-39.451,4.505-48.301c1.574-1.921,3.495-2.962,5.708-3.099
				c2.144-0.099,3.929,0.657,5.268,2.293c6.538,8.094,0.632,36.7-2.609,50.098c2.417-3.929,5.844-8.304,9.352-8.8
				c1.667-0.322,2.975,0.384,3.718,1.735c2.126,3.892-0.793,13.807-9.345,23.686l-1.289-1.115
				c8.409-9.705,10.709-18.864,9.141-21.752c-0.403-0.731-1.041-1.004-1.977-0.868c-4.518,0.645-9.779,10.448-11.428,14.167
				l-1.605-0.57c0.13-0.459,12.605-45.747,4.716-55.502c-0.979-1.215-2.15-1.834-3.842-1.661c-1.741,0.099-3.21,0.917-4.487,2.479
				c-9.178,11.192-3.303,54.349-3.247,54.795l-1.655,0.372c-3.043-9.593-12.438-34.654-19.298-35.435
				c-1.289-0.223-2.479,0.694-3.594,2.578c-8.664,14.65,16.955,41.087,17.209,41.36L534.463,1632.775z"/>
		</g>
	</g>
	<g>
		<g>
			<path style="fill:#F7B686;" d="M1167.775,1316.425c0.438-0.93,0.927-1.704,1.454-2.363c7.312-12.908,14.175-19.998,14.175-19.998
				l15.144,11.744c0.602-0.796,1.413-1.448,2.401-1.847c2.918-1.179,12.763-2.519,13.596,0.516
				c1.921,7.001,2.599,21.668,4.385,28.705c0.774,3.051,2.674,13.49-0.244,14.67c-2.536,1.025-7.97-6.547-10.126-10.464
				c-7.265,19.458-26.544,44.59-14.272,2.707c-0.023-0.006-0.046-0.014-0.069-0.02c-1.631,4.12-10.706,27.045-15.328,22.706
				c-4.079-3.829,1.74-20.512,4.35-27.318c-0.06-0.031-0.12-0.063-0.181-0.094c-3.251,6.688-11.517,22.629-14.218,17.73
				c-3.391-6.15,2.551-24.589,2.551-24.589s-8.109,23.39-12.89,16.778C1155.245,1340.776,1164.763,1322.823,1167.775,1316.425z"/>
			<g>
				<path style="fill:#F7B686;" d="M1507.256,859.944c-2.753-6.302-5.427-20.253-8.061-26.62c-1.142-2.76-4.355-12.374-1.822-14.158
					c2.201-1.551,11.844,6.218,14.384,9.504c4.705-25.19,40.853-3.718,38.383,4.818v0c0,0.001-0.001,0.002-0.001,0.003
					c-0.518,1.789-0.979,3.355-1.307,4.537c-0.272,0.982-0.613,1.828-1.003,2.575c-4.963,14.059-10.326,22.409-10.326,22.409
					s-4.712,10.843-16.533,8.957C1513.437,870.767,1508.449,862.677,1507.256,859.944z"/>
				<path style="fill:#F7B686;" d="M1511.757,828.67c0,0,10.847-42.674,16.48-40.64c5.633,2.034-1.499,32.856-1.499,32.856
					L1511.757,828.67z"/>
				<g>
					<path style="fill:#E2A074;" d="M1528.772,811.588c-2.948,0.842-5.627,9.888-5.627,9.888s-7.096,18.953-1.648,19.045
						c5.448,0.092,11.09-15.686,11.09-15.686s-5.86,21.881-0.685,20.302c5.175-1.579,11.42-18.233,11.42-18.233
						s-7.844,20.677-1.876,18.702c5.968-1.975,9.026-11.867,10.796-17.02c1.673-4.87-1.973-8.119-6.786-9.396
						c0,0-4.053-4.057-7.408-4.097c-1.286-0.015-2.057-1.508-2.873-1.901C1533.612,812.438,1531.001,810.951,1528.772,811.588z"/>
				</g>
			</g>
			<path style="fill:#96A7E2;" d="M1271.077,1077.908c0,0,7.334-43.144,83.943-49.42c59.004-4.834,118.818,29.958,125.919,82.85
				c9.82,73.151,11.568,112.259,3.647,149.111c0,0-162.354-29.432-212.612,6.058c0,0,17.267-67.873-2.104-163.627
				C1267.905,1093.168,1268.84,1085.604,1271.077,1077.908z"/>
			<path style="fill:#96A7E2;" d="M1370.217,1029.084c0,0,112.916-45.787,127.984-165.788c0.917-7.305,7.714-12.24,14.712-10.685
				l22.082,4.906c4.028,0.895,6.934,4.504,7.026,8.742c0.49,22.577-2.484,95.682-52.933,189.281
				c-5.178,9.607-15.5,24.471-8.312,55.685L1370.217,1029.084z"/>
			<path style="fill:#2F1A31;" d="M1271.81,1266.394c0.096,10.511,47.678,15.925,106.605,15.009
				c58.926-0.916,106.104-10.555,106.008-21.067c-0.096-10.511-48.961-28.364-107.887-27.448
				C1317.609,1233.804,1271.714,1255.883,1271.81,1266.394z"/>
			<g>
				<path style="fill:#F7B686;" d="M1356.055,1017.946l1.829-20.381l0.531-5.933l3.128-34.886l7.994,32.286l4.795,19.38l1.518,6.135
					c1.03,4.164,3.701,4.505,7.481,7.497c1.531,1.212,11.228,8.471,3.148,14.46c-10.065,7.463-32.393,4.338-42.343-3.955
					C1344.195,1032.52,1355.464,1024.532,1356.055,1017.946z"/>
				<g>
					<path style="fill:#56335B;" d="M1384.388,938.931c0,0,3.64,7.487,3.672,17.862c0.032,10.374-14.813-11.913-14.813-11.913
						L1384.388,938.931z"/>
					
						<ellipse transform="matrix(0.9565 -0.2918 0.2918 0.9565 -223.556 439.8228)" style="fill:#F7B686;" cx="1362.552" cy="969.294" rx="28.99" ry="35.763"/>
					<path style="fill:#2F1A31;" d="M1332.516,969.293l13.391-4.44c2.944-0.976,5.356-3.239,6.446-6.217
						c1.876-5.127,4.775-8.181,17.648-10.466c16.3-2.894,24.939-15.135,24.897-24.221c-0.044-9.273-9.558-13.494-16.809-7.491
						c-7.252,6.004-5.901-5.144-13.939-4.547c-15.02,1.115-15.374,13.285-27.402,15.509c-15.771,2.916-41.32,21.271-22.174,46.75
						L1332.516,969.293z"/>
					<g>
						<path style="fill:#060633;" d="M1363.738,967.5c0.127-0.128,0.197-0.313,0.173-0.508c-0.041-0.33-0.333-0.564-0.653-0.523
							c-0.189,0.024-4.622,0.168-5.813,5.308c-0.075,0.324,0.107,0.652,0.42,0.735c0.313,0.083,0.567-0.135,0.715-0.432
							c1.476-2.97,4.668-4.392,4.825-4.414C1363.535,967.649,1363.65,967.588,1363.738,967.5z"/>
					</g>
					<path style="fill:#060633;" d="M1362.808,975.607c0.639,1.279,1.889,1.93,2.792,1.453s1.116-1.901,0.477-3.181
						c-0.639-1.28-1.889-1.93-2.792-1.453C1362.382,972.904,1362.169,974.328,1362.808,975.607z"/>
					<g>
						<path style="fill:#060633;" d="M1384.59,961.134c0.128-0.053,0.224-0.181,0.25-0.361c0.044-0.304-0.129-0.639-0.387-0.749
							c-0.152-0.064-3.615-1.953-5.705,1.955c-0.132,0.246-0.066,0.613,0.158,0.827c0.223,0.215,0.469,0.14,0.651-0.05
							c1.818-1.901,4.611-1.683,4.737-1.63C1384.399,961.17,1384.502,961.17,1384.59,961.134z"/>
					</g>
					<path style="fill:#060633;" d="M1380.604,968.316c0.117,1.434,1.032,2.525,2.043,2.437c1.011-0.088,1.736-1.321,1.619-2.754
						c-0.117-1.434-1.032-2.525-2.043-2.437C1381.212,965.649,1380.487,966.883,1380.604,968.316z"/>
					<path style="fill:#56335B;" d="M1314.572,974.17c0,0,13.769,18.932,27.494,17.555c0,0-14.13-13.637,6.716-28.357
						C1348.782,963.368,1327.104,964.537,1314.572,974.17z"/>
					<path style="fill:#F7B686;" d="M1335.856,981.64c3.253,1.253,6.773-0.156,7.861-3.147s-0.667-6.431-3.92-7.684
						c-3.253-1.253-6.773,0.156-7.861,3.147S1332.602,980.388,1335.856,981.64z"/>
					<path style="fill:#56335B;" d="M1348.782,963.368c0,0,1.792,18.012,5.961,20.583c4.17,2.571,27.475-1.003,37.337-7.608v0
						c2.505,11.273-3.193,22.946-13.653,27.18c-3.461,1.401-7.171,2.213-10.994,2.352l0,0c-7.796,0.284-15.762-1.325-20.337-7.824
						c-1.392-1.978-1.409-16.004-1.409-16.004s-0.589-8.106-5.889-11.237C1339.797,970.81,1343.964,964.933,1348.782,963.368z"/>
					<path style="fill:#FFFFFF;" d="M1387.718,983.929c0,0-8.312,4.373-18.143,5.509c0,0,3.3,8.869,12.673,4.92
						C1387.698,992.062,1387.718,983.929,1387.718,983.929z"/>
					<g>
						<path style="fill:#2F1A31;" d="M1374.754,915.591c-3.179,0-4.096-2.913-4.109-2.95l0.769-0.223
							c0.037,0.136,1.016,3.111,4.691,2.194l0.198,0.768C1375.733,915.529,1375.219,915.591,1374.754,915.591z"/>
					</g>
					<g>
						<path style="fill:#FFFFFF;" d="M1373.632,942.499l-0.198-0.347c0.167-0.087,16.292-9.085,15.133-18.356
							c-0.335-2.652-1.115-4.276-2.398-4.97c-2.033-1.14-4.951,0.322-7.536,1.562c-0.397,0.198-0.787,0.384-1.159,0.558
							l-0.173-0.372c0.378-0.173,0.762-0.359,1.159-0.545c2.665-1.289,5.689-2.764,7.895-1.562c1.407,0.768,2.262,2.491,2.609,5.28
							C1390.16,933.29,1374.308,942.127,1373.632,942.499z"/>
					</g>
					<g>
						<path style="fill:#FFFFFF;" d="M1330.698,932.15l-0.025-0.397c17.265-1.314,23.363-12.791,23.419-12.902l0.359,0.174
							C1354.39,919.148,1348.205,930.824,1330.698,932.15z"/>
					</g>
				</g>
			</g>
			<path style="fill:#E28569;" d="M1369.05,1033.428c0,0,15.416-6.617,19.235-3.565c3.819,3.052,0.022,19.773-6.08,21.598
				C1376.103,1053.286,1363.185,1037.565,1369.05,1033.428z"/>
			<path style="fill:#2F1A31;" d="M1376.908,1655.413c0,0-0.412,16.231,10.93,21.438c11.342,5.207,44.677,11.173,31.601,20.906
				c-7.503,5.584-41.203-0.139-50.773-0.664c-9.572-0.525-18.763,2.932-25.56-3.525c-7.479-7.104,2.069-39.896,2.069-39.896
				s8.048,4.528,15.485,4.753C1371.376,1658.749,1376.908,1655.413,1376.908,1655.413z"/>
			<path style="fill:#6F4975;" d="M1435.39,1253.603c35.832,8.541,42.292,12.559,40.037,34.613
				c-2.309,22.582-8.447,72.36-20.416,124.462c-21.375,93.05-45.765,186.658-57.677,231.523
				c-4.261,16.049-19.293,27.13-36.413,26.841l-9.2-0.155c-18.511-0.312-32.726-16.166-30.45-33.961l39.11-305.807l2.828-64.724
				L1435.39,1253.603z"/>
			<path style="fill:#2F1A31;" d="M1236.094,1655.413c0,0-0.412,16.231,10.93,21.438c11.342,5.207,44.677,11.173,31.601,20.906
				c-7.503,5.584-41.203-0.139-50.773-0.664c-9.572-0.525-18.763,2.932-25.56-3.525c-7.479-7.104,2.069-39.896,2.069-39.896
				s8.048,4.528,15.485,4.753C1230.562,1658.749,1236.094,1655.413,1236.094,1655.413z"/>
			<path style="fill:#6F4975;" d="M1435.39,1253.603l-170.374,391.861c-6.244,16.115-22.425,26.504-40.21,25.817l-7.752-0.299
				c-18.302-0.707-31.45-17.489-27.213-34.733l96.697-369.854C1288.857,1258.098,1357.9,1238.319,1435.39,1253.603z"/>
			<g>
				<path style="fill:#020202;" d="M1343.167,1466.605c-0.087,0-0.18-0.025-0.266-0.05c-0.465-0.149-0.725-0.644-0.576-1.103
					l35.188-111.809c1.06-2.628,2.076-5.329,3.136-8.155c6.327-16.819,14.198-37.766,36.675-52.168
					c0.409-0.248,0.961-0.136,1.221,0.26c0.266,0.421,0.149,0.967-0.266,1.227c-21.981,14.08-29.734,34.729-35.968,51.313
					c-1.066,2.826-2.089,5.552-3.136,8.118l-35.163,111.735C1343.892,1466.357,1343.545,1466.605,1343.167,1466.605z"/>
			</g>
			<path style="fill:#ABBEF4;" d="M1376.7,1029.236c0,0-18.035-5.05-21.923-11.179c-3.888-6.129-21.021,10.023-20.387,14.406
				c0.634,4.383,35.172,26.343,37.091,23.094C1373.4,1052.31,1381.295,1033.095,1376.7,1029.236z"/>
			<path style="fill:#E28569;" d="M1376.698,1049.959c0,0-26.839,187.89-16.027,203.644c10.812,15.754,25.721,27.666,34.225,22.179
				c8.504-5.486,21.341-23.396,22.902-44.481c1.561-21.085-30.969-183.795-30.969-183.795L1376.698,1049.959z"/>
			<path style="fill:#ABBEF4;" d="M1376.7,1029.236c0,0,2.141-6.909,0.615-10.455c0,0-1.066-3.138,1.628-3.121
				c2.694,0.016,18.015,9.372,19.53,12.469s2.81,18.065-1.823,19.527c-4.633,1.461-17.153-13.769-18.604-15.26
				C1376.596,1030.906,1376.7,1029.236,1376.7,1029.236z"/>
			<g>
				<path style="fill:#2F1A31;" d="M1381.602,1051.817c-3.737,0-7.052-3.061-7.201-3.198l0.446-0.471
					c0.031,0.025,3.278,3.012,6.767,3.012c0.186,0,0.372-0.012,0.558-0.025c3.638-0.335,6.216-7.647,6.241-7.722l0.62,0.223
					c-0.112,0.31-2.752,7.771-6.798,8.143C1382.023,1051.804,1381.813,1051.817,1381.602,1051.817z"/>
			</g>
			<path style="fill:#96A7E2;" d="M1316.172,1036.286c0,0-52.921,12.902-82.684,85.05c-29.763,72.148-59.141,175.932-56.325,179.813
				c2.816,3.881,29.225,19.246,41.041,16.103c11.816-3.142,63.16-155.31,83.812-177.172
				C1322.669,1118.219,1316.172,1036.286,1316.172,1036.286z"/>
			<g>
				<path style="fill:#2F1A31;" d="M1279.336,1183.259l-0.806-0.347c8.676-20.116,22.973-42.847,23.115-43.07l0.744,0.471
					C1302.247,1140.535,1287.988,1163.217,1279.336,1183.259z"/>
			</g>
		</g>
		<path style="fill:#E28569;" d="M1567.107,541.554c67.236,41.024,125.351,93.413,172.915,155.916
			c25.816,33.92,47.948,70.029,66.267,108.048l-236.696,104.96c-32.448-63.86-82.743-116.985-146.319-153.444L1567.107,541.554z"/>
	</g>
	<g>
		<path style="fill:#FFFFFF;" d="M732.28,722.241c0-11.65,7.231-20.773,17.906-20.773c10.617,0,17.79,9.009,17.79,20.773
			c0,11.649-7.173,20.776-17.904,20.776C739.341,743.017,732.28,734.005,732.28,722.241z M758.909,722.241
			c0-7.287-3.558-12.797-8.836-12.797c-5.28,0-8.724,5.336-8.724,12.797c0,7.346,3.502,12.799,8.839,12.799
			C755.523,735.04,758.909,729.645,758.909,722.241z"/>
		<path style="fill:#FFFFFF;" d="M781.028,710.82l-7,1.722l-1.836-7.231l11.535-3.444h6.026v40.46h-8.724V710.82z"/>
		<path style="fill:#FFFFFF;" d="M798.142,722.241c0-11.65,7.231-20.773,17.906-20.773c10.617,0,17.79,9.009,17.79,20.773
			c0,11.649-7.173,20.776-17.904,20.776C805.203,743.017,798.142,734.005,798.142,722.241z M824.771,722.241
			c0-7.287-3.556-12.797-8.836-12.797c-5.28,0-8.724,5.336-8.724,12.797c0,7.346,3.502,12.799,8.839,12.799
			C821.385,735.04,824.771,729.645,824.771,722.241z"/>
		<path style="fill:#FFFFFF;" d="M846.889,710.82l-7.002,1.722l-1.836-7.231l11.537-3.444h6.026v40.46h-8.724V710.82z"/>
		<path style="fill:#FFFFFF;" d="M864.004,722.241c0-11.65,7.231-20.773,17.906-20.773c10.617,0,17.79,9.009,17.79,20.773
			c0,11.649-7.173,20.776-17.904,20.776C871.065,743.017,864.004,734.005,864.004,722.241z M890.632,722.241
			c0-7.287-3.558-12.797-8.836-12.797c-5.28,0-8.724,5.336-8.724,12.797c0,7.346,3.502,12.799,8.839,12.799
			C887.247,735.04,890.632,729.645,890.632,722.241z"/>
		<path style="fill:#FFFFFF;" d="M912.751,710.82l-7,1.722l-1.836-7.231l11.535-3.444h6.026v40.46h-8.724V710.82z"/>
		<path style="fill:#FFFFFF;" d="M929.866,722.241c0-11.65,7.231-20.773,17.906-20.773c10.617,0,17.79,9.009,17.79,20.773
			c0,11.649-7.173,20.776-17.904,20.776C936.926,743.017,929.866,734.005,929.866,722.241z M956.494,722.241
			c0-7.287-3.556-12.797-8.836-12.797c-5.28,0-8.724,5.336-8.724,12.797c0,7.346,3.502,12.799,8.839,12.799
			C953.109,735.04,956.494,729.645,956.494,722.241z"/>
	</g>
	<g>
		<path style="fill:#E28569;" d="M2102.181,590.647l-7,1.722l-1.836-7.231l11.535-3.444h6.026v40.46h-8.724V590.647z"/>
		<path style="fill:#E28569;" d="M2119.296,602.068c0-11.65,7.231-20.773,17.906-20.773c10.617,0,17.79,9.009,17.79,20.773
			c0,11.649-7.173,20.776-17.904,20.776S2119.296,613.831,2119.296,602.068z M2145.924,602.068c0-7.287-3.556-12.797-8.836-12.797
			s-8.724,5.336-8.724,12.797c0,7.346,3.502,12.799,8.839,12.799S2145.924,609.472,2145.924,602.068z"/>
		<path style="fill:#E28569;" d="M2168.043,590.647l-7.002,1.722l-1.836-7.231l11.537-3.444h6.026v40.46h-8.724V590.647z"/>
		<path style="fill:#E28569;" d="M2185.158,602.068c0-11.65,7.231-20.773,17.906-20.773c10.617,0,17.79,9.009,17.79,20.773
			c0,11.649-7.173,20.776-17.904,20.776S2185.158,613.831,2185.158,602.068z M2211.786,602.068c0-7.287-3.558-12.797-8.836-12.797
			c-5.28,0-8.724,5.336-8.724,12.797c0,7.346,3.502,12.799,8.839,12.799S2211.786,609.472,2211.786,602.068z"/>
	</g>
	<g>
		<path style="fill:#BED5DC;" d="M776.402,560.906l-6.427,1.581l-1.686-6.637l10.59-3.161h5.531v37.137h-8.008V560.906z"/>
		<path style="fill:#BED5DC;" d="M792.111,571.389c0-10.693,6.637-19.067,16.436-19.067c9.745,0,16.329,8.269,16.329,19.067
			c0,10.693-6.584,19.07-16.434,19.07C798.591,590.459,792.111,582.187,792.111,571.389z M816.552,571.389
			c0-6.689-3.266-11.746-8.111-11.746c-4.847,0-8.008,4.898-8.008,11.746c0,6.742,3.215,11.748,8.113,11.748
			C813.445,583.137,816.552,578.185,816.552,571.389z"/>
		<path style="fill:#BED5DC;" d="M836.855,560.906l-6.425,1.581l-1.686-6.637l10.588-3.161h5.531v37.137h-8.008V560.906z"/>
		<path style="fill:#BED5DC;" d="M852.564,571.389c0-10.693,6.637-19.067,16.436-19.067c9.745,0,16.329,8.269,16.329,19.067
			c0,10.693-6.584,19.07-16.434,19.07C859.045,590.459,852.564,582.187,852.564,571.389z M877.005,571.389
			c0-6.689-3.264-11.746-8.111-11.746c-4.847,0-8.008,4.898-8.008,11.746c0,6.742,3.215,11.748,8.113,11.748
			S877.005,578.185,877.005,571.389z"/>
		<path style="fill:#BED5DC;" d="M897.308,560.906l-6.427,1.581l-1.686-6.637l10.59-3.161h5.531v37.137h-8.008V560.906z"/>
		<path style="fill:#BED5DC;" d="M913.017,571.389c0-10.693,6.637-19.067,16.436-19.067c9.745,0,16.329,8.269,16.329,19.067
			c0,10.693-6.584,19.07-16.434,19.07S913.017,582.187,913.017,571.389z M937.458,571.389c0-6.689-3.266-11.746-8.111-11.746
			c-4.847,0-8.008,4.898-8.008,11.746c0,6.742,3.215,11.748,8.113,11.748S937.458,578.185,937.458,571.389z"/>
		<path style="fill:#BED5DC;" d="M957.761,560.906l-6.425,1.581l-1.686-6.637l10.588-3.161h5.531v37.137h-8.008V560.906z"/>
		<path style="fill:#BED5DC;" d="M973.47,571.389c0-10.693,6.637-19.067,16.436-19.067c9.745,0,16.329,8.269,16.329,19.067
			c0,10.693-6.584,19.07-16.434,19.07C979.951,590.459,973.47,582.187,973.47,571.389z M997.912,571.389
			c0-6.689-3.264-11.746-8.111-11.746c-4.847,0-8.008,4.898-8.008,11.746c0,6.742,3.215,11.748,8.113,11.748
			C994.804,583.137,997.912,578.185,997.912,571.389z"/>
		<path style="fill:#BED5DC;" d="M1018.212,560.906l-6.425,1.581l-1.686-6.637l10.588-3.161h5.531v37.137h-8.008V560.906z"/>
		<path style="fill:#BED5DC;" d="M1033.921,571.389c0-10.693,6.637-19.067,16.436-19.067c9.745,0,16.329,8.269,16.329,19.067
			c0,10.693-6.584,19.07-16.434,19.07S1033.921,582.187,1033.921,571.389z M1058.363,571.389c0-6.689-3.264-11.746-8.111-11.746
			s-8.008,4.898-8.008,11.746c0,6.742,3.215,11.748,8.113,11.748S1058.363,578.185,1058.363,571.389z"/>
		<path style="fill:#BED5DC;" d="M1078.665,560.906l-6.427,1.581l-1.686-6.637l10.59-3.161h5.531v37.137h-8.008V560.906z"/>
		<path style="fill:#BED5DC;" d="M1094.374,571.389c0-10.693,6.637-19.067,16.436-19.067c9.745,0,16.329,8.269,16.329,19.067
			c0,10.693-6.584,19.07-16.434,19.07S1094.374,582.187,1094.374,571.389z M1118.816,571.389c0-6.689-3.266-11.746-8.111-11.746
			c-4.847,0-8.008,4.898-8.008,11.746c0,6.742,3.215,11.748,8.113,11.748S1118.816,578.185,1118.816,571.389z"/>
	</g>
	<g>
		<path style="fill:#FFFFFF;" d="M1766.702,452.281c0-11.605,7.203-20.694,17.838-20.694c10.576,0,17.721,8.975,17.721,20.694
			c0,11.605-7.145,20.696-17.835,20.696S1766.702,464,1766.702,452.281z M1793.228,452.281c0-7.259-3.545-12.747-8.802-12.747
			c-5.26,0-8.691,5.316-8.691,12.747c0,7.318,3.489,12.75,8.805,12.75C1789.856,465.031,1793.228,459.657,1793.228,452.281z"/>
		<path style="fill:#FFFFFF;" d="M1815.26,440.905l-6.975,1.715l-1.829-7.203l11.493-3.431h6.003v40.305h-8.691V440.905z"/>
		<path style="fill:#FFFFFF;" d="M1832.309,452.281c0-11.605,7.203-20.694,17.838-20.694c10.576,0,17.721,8.975,17.721,20.694
			c0,11.605-7.145,20.696-17.835,20.696C1839.343,472.977,1832.309,464,1832.309,452.281z M1858.835,452.281
			c0-7.259-3.545-12.747-8.802-12.747c-5.26,0-8.691,5.316-8.691,12.747c0,7.318,3.489,12.75,8.805,12.75
			S1858.835,459.657,1858.835,452.281z"/>
		<path style="fill:#FFFFFF;" d="M1880.869,440.905l-6.973,1.715l-1.829-7.203l11.491-3.431h6.003v40.305h-8.691V440.905z"/>
		<path style="fill:#FFFFFF;" d="M1905.007,440.905l-6.975,1.715l-1.829-7.203l11.493-3.431h6.003v40.305h-8.691V440.905z"/>
		<path style="fill:#FFFFFF;" d="M1929.146,440.905l-6.973,1.715l-1.829-7.203l11.491-3.431h6.003v40.305h-8.691V440.905z"/>
	</g>
	<g>
		<path style="fill:#BED5DC;" d="M1637.665,525.589c0-11.605,7.203-20.694,17.838-20.694c10.576,0,17.721,8.975,17.721,20.694
			c0,11.605-7.145,20.696-17.835,20.696C1644.699,546.284,1637.665,537.307,1637.665,525.589z M1664.191,525.589
			c0-7.259-3.542-12.748-8.802-12.748s-8.691,5.316-8.691,12.748c0,7.318,3.489,12.75,8.805,12.75
			C1660.819,538.338,1664.191,532.964,1664.191,525.589z"/>
		<path style="fill:#BED5DC;" d="M1686.225,514.212l-6.975,1.715l-1.829-7.204l11.493-3.431h6.003v40.305h-8.691V514.212z"/>
		<path style="fill:#BED5DC;" d="M1703.274,525.589c0-11.605,7.203-20.694,17.838-20.694c10.576,0,17.721,8.975,17.721,20.694
			c0,11.605-7.145,20.696-17.835,20.696C1710.308,546.284,1703.274,537.307,1703.274,525.589z M1729.8,525.589
			c0-7.259-3.545-12.748-8.802-12.748c-5.26,0-8.691,5.316-8.691,12.748c0,7.318,3.489,12.75,8.805,12.75
			C1726.428,538.338,1729.8,532.964,1729.8,525.589z"/>
		<path style="fill:#BED5DC;" d="M1751.834,514.212l-6.973,1.715l-1.829-7.204l11.491-3.431h6.003v40.305h-8.691V514.212z"/>
		<path style="fill:#BED5DC;" d="M1768.881,525.589c0-11.605,7.203-20.694,17.838-20.694c10.576,0,17.721,8.975,17.721,20.694
			c0,11.605-7.145,20.696-17.835,20.696S1768.881,537.307,1768.881,525.589z M1795.407,525.589c0-7.259-3.545-12.748-8.802-12.748
			c-5.26,0-8.691,5.316-8.691,12.748c0,7.318,3.489,12.75,8.805,12.75S1795.407,532.964,1795.407,525.589z"/>
		<path style="fill:#BED5DC;" d="M1817.441,514.212l-6.973,1.715l-1.829-7.204l11.491-3.431h6.003v40.305h-8.691V514.212z"/>
		<path style="fill:#BED5DC;" d="M1834.49,525.589c0-11.605,7.204-20.694,17.838-20.694c10.576,0,17.721,8.975,17.721,20.694
			c0,11.605-7.145,20.696-17.835,20.696S1834.49,537.307,1834.49,525.589z M1861.016,525.589c0-7.259-3.542-12.748-8.802-12.748
			s-8.691,5.316-8.691,12.748c0,7.318,3.489,12.75,8.805,12.75C1857.644,538.338,1861.016,532.964,1861.016,525.589z"/>
	</g>
	<g>
		<path style="fill:#BED5DC;" d="M1789.1,601.267c0-11.605,7.203-20.694,17.838-20.694c10.576,0,17.721,8.975,17.721,20.694
			c0,11.605-7.145,20.696-17.835,20.696S1789.1,612.986,1789.1,601.267z M1815.626,601.267c0-7.259-3.542-12.748-8.802-12.748
			s-8.691,5.316-8.691,12.748c0,7.318,3.489,12.75,8.805,12.75S1815.626,608.643,1815.626,601.267z"/>
		<path style="fill:#BED5DC;" d="M1837.661,589.89l-6.975,1.715l-1.829-7.204l11.493-3.431h6.003v40.305h-8.691V589.89z"/>
		<path style="fill:#BED5DC;" d="M1854.709,601.267c0-11.605,7.203-20.694,17.838-20.694c10.576,0,17.721,8.975,17.721,20.694
			c0,11.605-7.145,20.696-17.835,20.696C1861.743,621.963,1854.709,612.986,1854.709,601.267z M1881.235,601.267
			c0-7.259-3.545-12.748-8.802-12.748c-5.26,0-8.691,5.316-8.691,12.748c0,7.318,3.489,12.75,8.805,12.75
			C1877.863,614.017,1881.235,608.643,1881.235,601.267z"/>
		<path style="fill:#BED5DC;" d="M1903.27,589.89l-6.973,1.715l-1.829-7.204l11.491-3.431h6.003v40.305h-8.691V589.89z"/>
		<path style="fill:#BED5DC;" d="M1920.316,601.267c0-11.605,7.203-20.694,17.838-20.694c10.576,0,17.721,8.975,17.721,20.694
			c0,11.605-7.145,20.696-17.835,20.696C1927.349,621.963,1920.316,612.986,1920.316,601.267z M1946.842,601.267
			c0-7.259-3.545-12.748-8.802-12.748c-5.26,0-8.691,5.316-8.691,12.748c0,7.318,3.489,12.75,8.805,12.75
			C1943.47,614.017,1946.842,608.643,1946.842,601.267z"/>
		<path style="fill:#BED5DC;" d="M1968.876,589.89l-6.973,1.715l-1.829-7.204l11.491-3.431h6.003v40.305h-8.691V589.89z"/>
		<path style="fill:#BED5DC;" d="M1985.925,601.267c0-11.605,7.203-20.694,17.838-20.694c10.576,0,17.721,8.975,17.721,20.694
			c0,11.605-7.145,20.696-17.835,20.696S1985.925,612.986,1985.925,601.267z M2012.451,601.267c0-7.259-3.542-12.748-8.802-12.748
			c-5.26,0-8.691,5.316-8.691,12.748c0,7.318,3.489,12.75,8.805,12.75S2012.451,608.643,2012.451,601.267z"/>
	</g>
	<g>
		<path style="fill:#BED5DC;" d="M1141.438,806.548c0-11.605,7.204-20.694,17.838-20.694c10.576,0,17.721,8.975,17.721,20.694
			c0,11.605-7.146,20.696-17.835,20.696C1148.471,827.244,1141.438,818.267,1141.438,806.548z M1167.964,806.548
			c0-7.259-3.542-12.748-8.802-12.748c-5.26,0-8.691,5.316-8.691,12.748c0,7.318,3.489,12.75,8.805,12.75
			S1167.964,813.924,1167.964,806.548z"/>
		<path style="fill:#BED5DC;" d="M1189.998,795.171l-6.975,1.715l-1.829-7.204l11.493-3.431h6.003v40.305h-8.691V795.171z"/>
		<path style="fill:#BED5DC;" d="M1207.047,806.548c0-11.605,7.203-20.694,17.838-20.694c10.576,0,17.721,8.975,17.721,20.694
			c0,11.605-7.145,20.696-17.835,20.696S1207.047,818.267,1207.047,806.548z M1233.573,806.548c0-7.259-3.545-12.748-8.802-12.748
			c-5.26,0-8.691,5.316-8.691,12.748c0,7.318,3.489,12.75,8.805,12.75S1233.573,813.924,1233.573,806.548z"/>
		<path style="fill:#BED5DC;" d="M1255.607,795.171l-6.973,1.715l-1.829-7.204l11.491-3.431h6.002v40.305h-8.691V795.171z"/>
	</g>
	<g>
		<path style="fill:#69A1C4;" d="M2319.094,763.98l-6.976,1.715l-1.829-7.203l11.493-3.431h6.003v40.305h-8.691V763.98z"/>
		<path style="fill:#69A1C4;" d="M2336.143,775.357c0-11.605,7.204-20.694,17.838-20.694c10.576,0,17.721,8.975,17.721,20.694
			c0,11.605-7.145,20.696-17.835,20.696C2343.176,796.053,2336.143,787.076,2336.143,775.357z M2362.669,775.357
			c0-7.259-3.545-12.748-8.802-12.748c-5.26,0-8.691,5.316-8.691,12.748c0,7.318,3.489,12.75,8.805,12.75
			C2359.296,788.107,2362.669,782.733,2362.669,775.357z"/>
		<path style="fill:#69A1C4;" d="M2384.703,763.98l-6.973,1.715l-1.83-7.203l11.491-3.431h6.003v40.305h-8.691V763.98z"/>
		<path style="fill:#69A1C4;" d="M2401.752,775.357c0-11.605,7.203-20.694,17.838-20.694c10.576,0,17.721,8.975,17.721,20.694
			c0,11.605-7.146,20.696-17.835,20.696S2401.752,787.076,2401.752,775.357z M2428.278,775.357c0-7.259-3.542-12.748-8.802-12.748
			s-8.691,5.316-8.691,12.748c0,7.318,3.489,12.75,8.805,12.75S2428.278,782.733,2428.278,775.357z"/>
		<path style="fill:#69A1C4;" d="M2443.507,775.357c0-11.605,7.203-20.694,17.838-20.694c10.576,0,17.721,8.975,17.721,20.694
			c0,11.605-7.146,20.696-17.835,20.696C2450.54,796.053,2443.507,787.076,2443.507,775.357z M2470.033,775.357
			c0-7.259-3.542-12.748-8.802-12.748s-8.691,5.316-8.691,12.748c0,7.318,3.489,12.75,8.805,12.75
			S2470.033,782.733,2470.033,775.357z"/>
		<path style="fill:#69A1C4;" d="M2492.067,763.98l-6.976,1.715l-1.829-7.203l11.493-3.431h6.003v40.305h-8.691V763.98z"/>
		<path style="fill:#69A1C4;" d="M2509.115,775.357c0-11.605,7.204-20.694,17.838-20.694c10.576,0,17.721,8.975,17.721,20.694
			c0,11.605-7.145,20.696-17.835,20.696C2516.149,796.053,2509.115,787.076,2509.115,775.357z M2535.642,775.357
			c0-7.259-3.545-12.748-8.802-12.748c-5.26,0-8.691,5.316-8.691,12.748c0,7.318,3.489,12.75,8.805,12.75
			C2532.269,788.107,2535.642,782.733,2535.642,775.357z"/>
		<path style="fill:#69A1C4;" d="M2557.676,763.98l-6.973,1.715l-1.83-7.203l11.491-3.431h6.003v40.305h-8.691V763.98z"/>
		<path style="fill:#69A1C4;" d="M2574.725,775.357c0-11.605,7.203-20.694,17.838-20.694c10.576,0,17.721,8.975,17.721,20.694
			c0,11.605-7.146,20.696-17.835,20.696S2574.725,787.076,2574.725,775.357z M2601.251,775.357c0-7.259-3.542-12.748-8.802-12.748
			s-8.691,5.316-8.691,12.748c0,7.318,3.489,12.75,8.805,12.75S2601.251,782.733,2601.251,775.357z"/>
		<path style="fill:#69A1C4;" d="M2623.283,763.98l-6.973,1.715l-1.83-7.203l11.491-3.431h6.003v40.305h-8.691V763.98z"/>
	</g>
	<g>
		<path style="fill:#BED5DC;" d="M2411.25,858.266c0-11.605,7.203-20.693,17.838-20.693c10.576,0,17.721,8.975,17.721,20.693
			c0,11.605-7.145,20.696-17.835,20.696S2411.25,869.984,2411.25,858.266z M2437.777,858.266c0-7.259-3.542-12.747-8.802-12.747
			s-8.691,5.316-8.691,12.747c0,7.318,3.489,12.75,8.805,12.75S2437.777,865.641,2437.777,858.266z"/>
		<path style="fill:#BED5DC;" d="M2459.811,846.889l-6.976,1.715l-1.829-7.203l11.493-3.431h6.002v40.305h-8.691V846.889z"/>
		<path style="fill:#BED5DC;" d="M2476.86,858.266c0-11.605,7.203-20.693,17.838-20.693c10.576,0,17.721,8.975,17.721,20.693
			c0,11.605-7.145,20.696-17.835,20.696C2483.893,878.962,2476.86,869.984,2476.86,858.266z M2503.385,858.266
			c0-7.259-3.545-12.747-8.802-12.747c-5.26,0-8.691,5.316-8.691,12.747c0,7.318,3.489,12.75,8.805,12.75
			C2500.013,871.016,2503.385,865.641,2503.385,858.266z"/>
		<path style="fill:#BED5DC;" d="M2525.42,846.889l-6.973,1.715l-1.83-7.203l11.491-3.431h6.003v40.305h-8.691V846.889z"/>
		<path style="fill:#BED5DC;" d="M2542.469,858.266c0-11.605,7.204-20.693,17.838-20.693c10.576,0,17.721,8.975,17.721,20.693
			c0,11.605-7.146,20.696-17.835,20.696S2542.469,869.984,2542.469,858.266z M2568.995,858.266c0-7.259-3.542-12.747-8.802-12.747
			c-5.26,0-8.691,5.316-8.691,12.747c0,7.318,3.489,12.75,8.805,12.75C2565.622,871.016,2568.995,865.641,2568.995,858.266z"/>
		<path style="fill:#BED5DC;" d="M2591.029,846.889l-6.975,1.715l-1.829-7.203l11.493-3.431h6.002v40.305h-8.691V846.889z"/>
		<path style="fill:#BED5DC;" d="M2608.077,858.266c0-11.605,7.204-20.693,17.838-20.693c10.576,0,17.721,8.975,17.721,20.693
			c0,11.605-7.146,20.696-17.835,20.696C2615.111,878.962,2608.077,869.984,2608.077,858.266z M2634.604,858.266
			c0-7.259-3.545-12.747-8.802-12.747c-5.26,0-8.691,5.316-8.691,12.747c0,7.318,3.489,12.75,8.805,12.75
			S2634.604,865.641,2634.604,858.266z"/>
		<path style="fill:#BED5DC;" d="M2656.635,846.889l-6.975,1.715l-1.829-7.203l11.493-3.431h6.003v40.305h-8.691V846.889z"/>
		<path style="fill:#BED5DC;" d="M2673.684,858.266c0-11.605,7.203-20.693,17.838-20.693c10.576,0,17.721,8.975,17.721,20.693
			c0,11.605-7.146,20.696-17.835,20.696S2673.684,869.984,2673.684,858.266z M2700.21,858.266c0-7.259-3.545-12.747-8.802-12.747
			c-5.26,0-8.691,5.316-8.691,12.747c0,7.318,3.489,12.75,8.805,12.75S2700.21,865.641,2700.21,858.266z"/>
	</g>
	<g>
		<path style="fill:#FFFFFF;" d="M1220.703,725.828l-6.973,1.715l-1.829-7.203l11.491-3.431h6.003v40.305h-8.691V725.828z"/>
		<path style="fill:#FFFFFF;" d="M1237.752,737.204c0-11.605,7.203-20.693,17.838-20.693c10.576,0,17.721,8.975,17.721,20.693
			c0,11.605-7.145,20.696-17.835,20.696C1244.786,757.9,1237.752,748.923,1237.752,737.204z M1264.278,737.204
			c0-7.259-3.542-12.747-8.802-12.747c-5.26,0-8.691,5.316-8.691,12.747c0,7.318,3.489,12.75,8.805,12.75
			C1260.906,749.954,1264.278,744.58,1264.278,737.204z"/>
		<path style="fill:#FFFFFF;" d="M1286.312,725.828l-6.975,1.715l-1.829-7.203l11.493-3.431h6.003v40.305h-8.691V725.828z"/>
		<path style="fill:#FFFFFF;" d="M1303.361,737.204c0-11.605,7.203-20.693,17.838-20.693c10.576,0,17.721,8.975,17.721,20.693
			c0,11.605-7.145,20.696-17.835,20.696S1303.361,748.923,1303.361,737.204z M1329.887,737.204c0-7.259-3.545-12.747-8.802-12.747
			c-5.26,0-8.691,5.316-8.691,12.747c0,7.318,3.489,12.75,8.805,12.75S1329.887,744.58,1329.887,737.204z"/>
		<path style="fill:#FFFFFF;" d="M1351.921,725.828l-6.973,1.715l-1.829-7.203l11.491-3.431h6.002v40.305h-8.691V725.828z"/>
	</g>
	<g>
		<path style="fill:#E28569;" d="M567.628,892.786c0-11.649,7.231-20.773,17.906-20.773c10.617,0,17.79,9.009,17.79,20.773
			c0,11.649-7.173,20.776-17.904,20.776C574.689,913.562,567.628,904.55,567.628,892.786z M594.256,892.786
			c0-7.287-3.558-12.797-8.836-12.797c-5.28,0-8.724,5.336-8.724,12.797c0,7.346,3.502,12.799,8.839,12.799
			C590.871,905.585,594.256,900.19,594.256,892.786z"/>
		<path style="fill:#E28569;" d="M616.373,881.365l-7.002,1.722l-1.836-7.231l11.537-3.444h6.026v40.46h-8.724V881.365z"/>
		<path style="fill:#E28569;" d="M633.487,892.786c0-11.649,7.231-20.773,17.906-20.773c10.617,0,17.79,9.009,17.79,20.773
			c0,11.649-7.173,20.776-17.904,20.776C640.548,913.562,633.487,904.55,633.487,892.786z M660.116,892.786
			c0-7.287-3.558-12.797-8.836-12.797c-5.28,0-8.724,5.336-8.724,12.797c0,7.346,3.502,12.799,8.839,12.799
			C656.73,905.585,660.116,900.19,660.116,892.786z"/>
		<path style="fill:#E28569;" d="M682.235,881.365l-7,1.722l-1.836-7.231l11.535-3.444h6.026v40.46h-8.724V881.365z"/>
		<path style="fill:#E28569;" d="M699.349,892.786c0-11.649,7.231-20.773,17.906-20.773c10.617,0,17.79,9.009,17.79,20.773
			c0,11.649-7.173,20.776-17.904,20.776C706.41,913.562,699.349,904.55,699.349,892.786z M725.978,892.786
			c0-7.287-3.556-12.797-8.836-12.797c-5.28,0-8.724,5.336-8.724,12.797c0,7.346,3.502,12.799,8.839,12.799
			C722.592,905.585,725.978,900.19,725.978,892.786z"/>
		<path style="fill:#FFFFFF;" d="M748.097,881.365l-7.002,1.722l-1.836-7.231l11.537-3.444h6.026v40.46h-8.724V881.365z"/>
		<path style="fill:#FFFFFF;" d="M765.211,892.786c0-11.649,7.231-20.773,17.906-20.773c10.617,0,17.79,9.009,17.79,20.773
			c0,11.649-7.173,20.776-17.904,20.776C772.272,913.562,765.211,904.55,765.211,892.786z M791.84,892.786
			c0-7.287-3.558-12.797-8.836-12.797c-5.28,0-8.724,5.336-8.724,12.797c0,7.346,3.502,12.799,8.839,12.799
			C788.454,905.585,791.84,900.19,791.84,892.786z"/>
		<path style="fill:#FFFFFF;" d="M813.959,881.365l-7,1.722l-1.836-7.231l11.535-3.444h6.026v40.46h-8.724V881.365z"/>
		<path style="fill:#FFFFFF;" d="M831.073,892.786c0-11.649,7.231-20.773,17.906-20.773c10.617,0,17.79,9.009,17.79,20.773
			c0,11.649-7.173,20.776-17.904,20.776C838.134,913.562,831.073,904.55,831.073,892.786z M857.701,892.786
			c0-7.287-3.556-12.797-8.836-12.797c-5.28,0-8.724,5.336-8.724,12.797c0,7.346,3.502,12.799,8.839,12.799
			C854.316,905.585,857.701,900.19,857.701,892.786z"/>
		<path style="fill:#FFFFFF;" d="M879.818,881.365l-7,1.722l-1.836-7.231l11.535-3.444h6.026v40.46h-8.724V881.365z"/>
		<path style="fill:#FFFFFF;" d="M896.932,892.786c0-11.649,7.231-20.773,17.906-20.773c10.617,0,17.79,9.009,17.79,20.773
			c0,11.649-7.173,20.776-17.904,20.776C903.993,913.562,896.932,904.55,896.932,892.786z M923.561,892.786
			c0-7.287-3.556-12.797-8.836-12.797c-5.28,0-8.724,5.336-8.724,12.797c0,7.346,3.502,12.799,8.839,12.799
			C920.175,905.585,923.561,900.19,923.561,892.786z"/>
		<path style="fill:#FFFFFF;" d="M945.68,881.365l-7.002,1.722l-1.836-7.231l11.537-3.444h6.026v40.46h-8.724V881.365z"/>
		<path style="fill:#FFFFFF;" d="M962.794,892.786c0-11.649,7.231-20.773,17.906-20.773c10.617,0,17.79,9.009,17.79,20.773
			c0,11.649-7.173,20.776-17.904,20.776C969.855,913.562,962.794,904.55,962.794,892.786z M989.423,892.786
			c0-7.287-3.558-12.797-8.836-12.797c-5.28,0-8.724,5.336-8.724,12.797c0,7.346,3.502,12.799,8.839,12.799
			C986.037,905.585,989.423,900.19,989.423,892.786z"/>
	</g>
	<g>
		<path style="fill:#FFFFFF;" d="M1050.377,1342.008l-14.069-4.386c-3.822-1.192-5.968-5.244-4.805-9.075l5.264-17.344
			c1.135-3.74,5.017-5.919,8.801-4.94l42.744,11.064c0.683,0.177,1.338,0.452,1.942,0.817l15.216,9.19
			c3.446,2.081,4.552,6.562,2.471,10.007l-83.171,137.701c-2.081,3.446-6.562,4.552-10.007,2.471l-19.905-12.022
			c-3.446-2.081-4.552-6.562-2.471-10.007l62.06-102.749C1056.892,1348.686,1054.893,1343.416,1050.377,1342.008z"/>
		<g>
			<path style="fill:#BED5DC;" d="M874.306,1349.83c21.421-45.749,66.596-68.282,108.519-48.652
				c41.693,19.522,53.295,68.093,31.663,114.291c-21.421,45.749-66.371,68.398-108.514,48.666
				C863.831,1444.401,852.674,1396.028,874.306,1349.83z M978.879,1398.795c13.4-28.618,9.566-56.793-11.171-66.503
				c-20.737-9.71-44.074,4.914-57.792,34.211c-13.508,28.848-9.781,56.703,11.175,66.516
				C942.048,1442.833,965.264,1427.872,978.879,1398.795z"/>
			<path style="fill:#FFFFFF;" d="M727.623,1349.63c-13.682-48.627,5.786-95.205,50.347-107.743
				c44.317-12.469,84.839,16.713,98.656,65.818c13.682,48.627-5.54,95.146-50.334,107.75
				C781.497,1428.058,741.44,1398.735,727.623,1349.63z M838.775,1318.354c-8.559-30.419-29.873-49.239-51.915-43.037
				c-22.041,6.202-30.149,32.522-21.387,63.663c8.628,30.663,29.652,49.312,51.927,43.045
				C839.676,1375.756,847.472,1349.261,838.775,1318.354z"/>
			<path style="fill:#96A7E2;" d="M827.461,1413.234c-13.682-48.627,5.786-95.205,50.347-107.743
				c44.317-12.47,84.839,16.712,98.656,65.818c13.682,48.627-5.54,95.146-50.334,107.75
				C881.335,1491.662,841.278,1462.339,827.461,1413.234z M938.613,1381.958c-8.559-30.419-29.874-49.239-51.915-43.038
				c-22.041,6.202-30.149,32.522-21.387,63.663c8.628,30.663,29.652,49.312,51.927,43.045
				C939.514,1439.36,947.31,1412.865,938.613,1381.958z"/>
			<path style="fill:#96A7E2;" d="M683.514,1323.087l-14.069-4.386c-3.823-1.192-5.968-5.244-4.805-9.075l5.264-17.344
				c1.135-3.74,5.017-5.919,8.801-4.939l42.744,11.063c0.684,0.177,1.338,0.452,1.942,0.817l15.216,9.19
				c3.446,2.081,4.552,6.562,2.471,10.007l-83.171,137.701c-2.081,3.446-6.562,4.552-10.007,2.471l-19.905-12.022
				c-3.446-2.081-4.552-6.562-2.471-10.007l62.06-102.749C690.03,1329.765,688.03,1324.495,683.514,1323.087z"/>
			<path style="fill:#BED5DC;" d="M767.407,1356.644l-12.502,7.802c-3.397,2.12-7.867,1.102-10.013-2.278l-9.712-15.304
				c-2.094-3.3-1.213-7.664,1.997-9.893l36.269-25.179c0.58-0.403,1.215-0.719,1.886-0.939l16.891-5.537
				c3.825-1.254,7.943,0.83,9.196,4.656l50.11,152.866c1.254,3.825-0.831,7.943-4.656,9.197l-22.097,7.243
				c-3.825,1.254-7.943-0.831-9.196-4.656l-37.391-114.064C776.718,1356.063,771.42,1354.14,767.407,1356.644z"/>
			<g>
				<g>
					
						<ellipse transform="matrix(0.2108 -0.9775 0.9775 0.2108 -1043.7178 2046.3802)" style="fill:#2F1A31;" cx="745.534" cy="1669.6" rx="29.197" ry="29.197"/>
					
						<ellipse transform="matrix(0.8913 -0.4534 0.4534 0.8913 -651.5167 621.7521)" style="fill:#2F1A31;" cx="970.892" cy="1669.6" rx="29.197" ry="29.197"/>
					<g>
						<g>
							
								<rect x="603.553" y="1250.574" transform="matrix(0.9182 -0.3962 0.3962 0.9182 -498.5949 354.6242)" style="fill:#2F1A31;" width="11.215" height="267.428"/>
						</g>
						<path style="fill:#E28569;" d="M660.456,1276.652H529.279c-7.4,0-13.455-6.055-13.455-13.455v-8.408
							c0-7.4,6.055-13.455,13.455-13.455h131.177c7.4,0,13.455,6.055,13.455,13.455v8.408
							C673.911,1270.598,667.857,1276.652,660.456,1276.652z"/>
					</g>
					<path style="fill:#E28569;" d="M568.581,1422.873l101.302,224.476c4.264,9.45,13.67,15.524,24.037,15.524h351.513
						c10.926,0,20.721-6.738,24.628-16.941l85.953-224.476c6.612-17.268-6.138-35.802-24.628-35.802H592.618
						C573.469,1385.653,560.704,1405.418,568.581,1422.873z"/>
				</g>
				<path style="fill:#F4937D;" d="M970.892,1405.068c0,0,126.338-7.227,141.288,5.481s10.465,60.547-11.212,54.567
					c-21.677-5.98-30.647-30.932-58.305-30.79C1015.006,1434.468,932.726,1406.614,970.892,1405.068z"/>
				<path style="fill:#D16F59;" d="M630.046,1489.035c0,0,41.486,134.549,67.274,144.64c25.788,10.091,161.459,17.94,168.186,6.727
					c6.727-11.212-108.76-41.603-131.185-72.939C711.897,1536.127,621.205,1462.082,630.046,1489.035z"/>
			</g>
		</g>
	</g>
</g>
</svg>
