<svg width="40" height="40" viewBox="0 0 40 40" fill="none" xmlns="http://www.w3.org/2000/svg">
<path d="M20.7032 36.7749C21.0591 37.7457 22.1491 38.7499 23.5224 38.3424C24.8982 37.9349 25.7941 36.9524 26.3257 35.7616C26.8449 34.5982 27.0399 33.1991 27.0507 31.7916C27.0699 29.5249 26.6132 27.0332 26.0174 24.9999H30.2174C33.1032 24.9999 35.1982 22.2566 34.4391 19.4732L31.6607 9.29158C31.1335 7.35956 29.875 5.7086 28.1517 4.68825C26.4285 3.6679 24.3758 3.35826 22.4282 3.82491L10.7032 6.63324C9.65494 6.88447 8.69297 7.41159 7.91709 8.15993C7.14121 8.90827 6.57967 9.85056 6.29072 10.8891L5.26239 14.5832C4.62989 16.8557 5.92072 19.0974 7.93322 20.0207C13.2032 22.4391 16.0224 25.9599 18.2307 30.4591C18.9307 31.8841 19.4432 33.2999 20.1382 35.2216C20.3132 35.7049 20.4991 36.2199 20.7032 36.7749ZM22.8557 36.3216C22.7643 36.2561 22.6956 36.1637 22.6591 36.0574C22.4666 35.5324 22.2866 35.0366 22.1157 34.5632C21.4157 32.6257 20.8557 31.0782 20.1016 29.5407C17.7424 24.7357 14.6199 20.7966 8.80156 18.1274C7.58489 17.5691 6.94989 16.2916 7.26989 15.1424L8.29739 11.4482C8.48675 10.7677 8.85476 10.1503 9.36324 9.66001C9.87171 9.1697 10.5021 8.82439 11.1891 8.65991L22.9141 5.85157C24.3352 5.51121 25.8329 5.73724 27.0903 6.4818C28.3477 7.22637 29.266 8.43102 29.6507 9.84074L32.4291 20.0216C32.5218 20.3616 32.535 20.7183 32.4674 21.0642C32.3998 21.4101 32.2534 21.7357 32.0395 22.0158C31.8257 22.2959 31.5501 22.5228 31.2342 22.6791C30.9183 22.8353 30.5706 22.9166 30.2182 22.9166H24.5832C24.4158 22.9166 24.2508 22.9569 24.1023 23.0342C23.9538 23.1114 23.826 23.2234 23.73 23.3605C23.6339 23.4976 23.5723 23.6559 23.5504 23.8219C23.5284 23.9879 23.5469 24.1567 23.6041 24.3141C24.3407 26.3407 24.9891 29.2599 24.9682 31.7749C24.9582 33.0341 24.7799 34.1132 24.4232 34.9124C24.0782 35.6841 23.5932 36.1491 22.9307 36.3457C22.9199 36.3482 22.9166 36.3482 22.9124 36.3474C22.8921 36.3428 22.8728 36.3343 22.8557 36.3224V36.3216Z" fill="#333333"/>
</svg>
