<svg width="466" height="32" viewBox="0 0 466 32" fill="none" xmlns="http://www.w3.org/2000/svg">
<path d="M255.57 12.2445C253.396 12.5808 251.412 13.6477 249.962 15.26C249.326 15.9751 248.847 16.8091 248.554 17.7109C248.261 18.6127 248.159 19.5632 248.257 20.5044C248.388 21.4468 248.676 22.362 249.109 23.214C249.586 24.0686 250.191 24.8493 250.904 25.5302C252.44 26.9707 254.347 27.9821 256.422 28.4584C258.558 28.9766 260.792 28.9766 262.928 28.4584C265.01 27.9536 266.954 27.0141 268.626 25.7051C270.175 24.5776 271.387 23.0676 272.136 21.3312C272.885 19.5948 273.145 17.6951 272.888 15.8282C272.586 13.965 271.9 12.1809 270.869 10.5838C269.747 8.95157 268.316 7.54255 266.652 6.432C262.962 4.14412 258.639 3.01521 254.269 3.19795C252.057 3.24764 249.865 3.61582 247.763 4.29053C245.754 4.92921 243.861 5.87325 242.155 7.08759C238.967 9.67337 236.447 12.9515 234.797 16.6585C233.765 18.494 232.733 20.3733 231.432 22.2525C230.047 24.2225 228.315 25.9387 226.317 27.3221L224.747 28.4147L223.042 29.2887L222.189 29.7258L221.292 30.0754L219.453 30.7747L217.523 31.2991H216.581H215.594L213.62 31.5613H211.601H209.582H207.608C206.276 31.4023 204.957 31.154 203.66 30.8183C201.143 30.1513 198.761 29.0725 196.616 27.628L195.09 26.4917C194.62 26.0917 194.171 25.6687 193.744 25.2243C192.907 24.3637 192.156 23.4271 191.501 22.4273C191.142 21.9466 190.963 21.3785 190.648 20.854C190.379 20.3644 190.153 19.8525 189.975 19.3244C189.591 18.247 189.32 17.134 189.168 16.003C188.909 13.6552 189.306 11.283 190.317 9.13677C191.328 6.99059 192.915 5.15017 194.911 3.80986C197.004 2.26056 199.426 1.18558 202 0.66323C204.648 -0.00673675 207.427 -0.00673675 210.076 0.66323C212.581 1.33227 214.848 2.66324 216.626 4.50906C217.421 5.37476 218.085 6.34592 218.6 7.39348C219.061 8.43494 219.349 9.54142 219.453 10.6712C219.503 11.8051 219.313 12.9369 218.897 13.9968C218.48 15.0566 217.845 16.022 217.03 16.8334C215.227 18.5825 212.872 19.6907 210.345 19.98C210.215 19.9944 210.084 19.9624 209.977 19.8901C209.87 19.8177 209.793 19.7099 209.761 19.5866C209.755 19.5292 209.761 19.4711 209.778 19.4158C209.795 19.3604 209.823 19.309 209.86 19.2642C209.898 19.2195 209.944 19.1825 209.997 19.1554C210.049 19.1282 210.106 19.1114 210.165 19.1059C212.313 18.7104 214.258 17.6163 215.684 16.003C216.31 15.2924 216.781 14.4644 217.066 13.57C217.352 12.6755 217.446 11.7336 217.344 10.8023C217.181 9.88946 216.879 9.00561 216.447 8.18017C215.951 7.33733 215.348 6.55897 214.652 5.86384C213.125 4.47529 211.255 3.49651 209.223 3.02317C207.13 2.52654 204.945 2.52654 202.852 3.02317C200.817 3.49834 198.917 4.40902 197.289 5.68906C195.762 6.83416 194.557 8.3378 193.789 10.0594C193.067 11.712 192.819 13.5245 193.071 15.3037C193.242 16.2131 193.497 17.1054 193.834 17.9696C193.991 18.4076 194.186 18.8317 194.417 19.237C194.417 19.6304 194.821 20.0674 195.09 20.4607C195.631 21.2568 196.263 21.99 196.975 22.6459C197.3 23.0138 197.66 23.3504 198.051 23.651L199.263 24.5688C201.007 25.7292 202.953 26.5731 205.006 27.0599C206.051 27.3497 207.115 27.5687 208.191 27.7154H209.806H211.466H213.126H214.742H215.549L216.357 27.4969L217.927 27.1035L219.408 26.5354L220.17 26.2732L220.843 25.9236L222.234 25.1807L223.491 24.3066C226.721 21.7938 229.277 18.5544 230.938 14.8667C231.941 12.9276 233.08 11.0584 234.348 9.27274C235.786 7.4733 237.495 5.8966 239.418 4.59648C241.528 3.1321 243.859 1.99676 246.327 1.23132C248.854 0.451352 251.484 0.039015 254.134 0.00764375C259.437 -0.122389 264.643 1.40957 268.985 4.37795C270.948 5.57717 272.655 7.13549 274.01 8.96679C275.206 10.8905 275.984 13.0322 276.298 15.26C276.533 17.5715 276.134 19.9023 275.14 22.014C274.147 24.1257 272.596 25.9425 270.645 27.2784C268.577 28.8055 266.186 29.8653 263.646 30.3813C261.039 31.0142 258.312 31.0142 255.704 30.3813C253.237 29.7305 251.002 28.4301 249.244 26.6228C248.44 25.78 247.774 24.8219 247.27 23.7821C246.789 22.7754 246.485 21.6968 246.372 20.5918C246.314 19.4608 246.495 18.3301 246.904 17.27C247.313 16.21 247.941 15.2431 248.75 14.4297C250.513 12.6753 252.842 11.5644 255.346 11.283C255.488 11.2553 255.636 11.2802 255.76 11.3529C255.885 11.4257 255.977 11.541 256.019 11.6764C256.032 11.8088 255.993 11.9413 255.909 12.0468C255.826 12.1523 255.705 12.223 255.57 12.2445Z" fill="black" fill-opacity="0.6"/>
<path d="M276.811 11.483L358.459 12.3598C359.018 12.3215 359.568 12.5081 359.993 12.8794C360.417 13.2506 360.681 13.7768 360.727 14.3442C360.67 14.9071 360.403 15.4264 359.981 15.7954C359.56 16.1645 359.015 16.3552 358.459 16.3286L276.811 17.2054C276.002 17.2705 275.2 17.0133 274.574 16.4881C273.947 15.9629 273.546 15.2108 273.455 14.3904C273.513 13.5658 273.888 12.7979 274.5 12.2535C275.112 11.7091 275.909 11.4322 276.721 11.483H276.811Z" fill="black" fill-opacity="0.6"/>
<path d="M374.621 11.5112L464.942 13.6973C465.07 13.6965 465.194 13.7661 465.289 13.8926C465.384 14.0191 465.443 14.1931 465.455 14.3803C465.449 14.4702 465.431 14.5575 465.402 14.6372C465.373 14.7168 465.333 14.7873 465.286 14.8445C465.238 14.9017 465.183 14.9445 465.124 14.9703C465.065 14.9962 465.003 15.0046 464.942 14.9951L374.621 17.1812C374.342 17.2449 374.057 17.2192 373.785 17.106C373.514 16.9928 373.262 16.7948 373.048 16.5254C372.833 16.2561 372.661 15.9219 372.543 15.5457C372.425 15.1695 372.364 14.7602 372.364 14.3461C372.364 13.932 372.425 13.5229 372.543 13.1467C372.661 12.7705 372.833 12.4363 373.048 12.167C373.262 11.8976 373.514 11.6995 373.785 11.5863C374.057 11.4732 374.342 11.4475 374.621 11.5112Z" fill="black" fill-opacity="0.6"/>
<path d="M369.455 14.4604C369.385 15.2455 369.025 15.9714 368.451 16.4845C367.877 16.9977 367.135 17.2577 366.381 17.2097C365.653 17.2097 364.955 16.908 364.44 16.3709C363.925 15.8338 363.636 15.1054 363.636 14.3458C363.636 13.5863 363.925 12.8579 364.44 12.3208C364.955 11.7837 365.653 11.4819 366.381 11.4819C366.772 11.4587 367.163 11.5183 367.532 11.6568C367.9 11.7954 368.238 12.0101 368.525 12.2883C368.812 12.5664 369.043 12.9022 369.202 13.2754C369.362 13.6487 369.448 14.0517 369.455 14.4604Z" fill="black" fill-opacity="0.6"/>
<path d="M185.726 17.1698L104.086 16.3045C103.523 16.33 102.973 16.1355 102.55 15.7618C102.127 15.3881 101.865 14.8644 101.818 14.3007C101.876 13.7489 102.144 13.2411 102.567 12.8842C102.99 12.5274 103.535 12.3495 104.086 12.3879L185.726 11.5226C186.138 11.4481 186.561 11.4651 186.965 11.5726C187.369 11.6801 187.745 11.8755 188.066 12.1448C188.387 12.414 188.645 12.7507 188.822 13.1311C188.999 13.5115 189.091 13.9263 189.091 14.3462C189.091 14.7661 188.999 15.1809 188.822 15.5613C188.645 15.9416 188.387 16.2784 188.066 16.5477C187.745 16.817 187.369 17.0122 186.965 17.1197C186.561 17.2272 186.138 17.2443 185.726 17.1698Z" fill="black" fill-opacity="0.6"/>
<path d="M90.6228 17.2081L0.512259 15.0036C0.451049 15.0131 0.389175 15.0047 0.330208 14.9786C0.27124 14.9525 0.216345 14.9094 0.16871 14.8517C0.121075 14.7941 0.0816392 14.723 0.0526808 14.6426C0.0237225 14.5623 0.00581785 14.4743 0 14.3836C0.0116501 14.1948 0.0707235 14.0193 0.165557 13.8918C0.26039 13.7643 0.384097 13.694 0.512259 13.6948L90.8091 11.4903C91.0845 11.4525 91.3622 11.4957 91.6263 11.6174C91.8904 11.7391 92.1355 11.937 92.3477 12.1995C92.5598 12.4621 92.7347 12.7842 92.8622 13.1473C92.9898 13.5103 93.0675 13.9071 93.0909 14.3148C93.0792 14.7191 93.0128 15.1158 92.8957 15.4816C92.7786 15.8473 92.6131 16.1748 92.4091 16.4444C92.2051 16.7141 91.9667 16.9205 91.7079 17.0517C91.4491 17.1828 91.1751 17.2361 90.9022 17.2081H90.6228Z" fill="black" fill-opacity="0.6"/>
<path d="M96 14.289C96.0282 13.4936 96.2052 12.7533 96.4928 12.2281C96.7804 11.7029 97.1554 11.4351 97.5369 11.4824C97.9008 11.4824 98.2499 11.7841 98.5072 12.3212C98.7645 12.8583 98.9091 13.5868 98.9091 14.3464C98.9091 15.106 98.7645 15.8344 98.5072 16.3715C98.2499 16.9086 97.9008 17.2104 97.5369 17.2104C97.3436 17.2335 97.15 17.1758 96.9676 17.0408C96.7851 16.9058 96.6174 16.6961 96.4742 16.424C96.3311 16.1519 96.2154 15.8229 96.134 15.4563C96.0525 15.0897 96.007 14.6929 96 14.289Z" fill="black" fill-opacity="0.6"/>
<path d="M209.454 20.0847C211.061 20.0847 212.364 19.4424 212.364 18.65C212.364 17.8577 211.061 17.2153 209.454 17.2153C207.848 17.2153 206.545 17.8577 206.545 18.65C206.545 19.4424 207.848 20.0847 209.454 20.0847Z" fill="black" fill-opacity="0.6"/>
<path d="M255.985 13.9318C256.028 14.5113 255.98 15.103 255.847 15.6272C255.715 16.1515 255.504 16.583 255.243 16.864C254.982 17.1449 254.684 17.2618 254.389 17.1986C254.093 17.1355 253.815 16.8956 253.591 16.511C253.366 16.1265 253.207 15.6158 253.135 15.0478C253.062 14.4797 253.08 13.8816 253.185 13.3338C253.29 12.786 253.478 12.3149 253.723 11.9839C253.969 11.6528 254.259 11.4777 254.557 11.4821C254.91 11.439 255.258 11.6718 255.525 12.1301C255.793 12.5885 255.957 13.2357 255.985 13.9318Z" fill="black" fill-opacity="0.6"/>
</svg>
