<svg width="40" height="40" viewBox="0 0 40 40" fill="none" xmlns="http://www.w3.org/2000/svg">
<path d="M20.7032 3.22509C21.0591 2.25426 22.1491 1.25009 23.5224 1.65759C24.8982 2.06509 25.7941 3.04759 26.3257 4.23842C26.8449 5.40176 27.0399 6.80092 27.0507 8.20842C27.0699 10.4751 26.6132 12.9668 26.0174 15.0001H30.2174C33.1032 15.0001 35.1982 17.7434 34.4391 20.5268L31.6607 30.7084C31.1335 32.6404 29.875 34.2914 28.1517 35.3118C26.4285 36.3321 24.3758 36.6417 22.4282 36.1751L10.7032 33.3668C9.65494 33.1155 8.69297 32.5884 7.91709 31.8401C7.14121 31.0917 6.57967 30.1494 6.29072 29.1109L5.26239 25.4168C4.62989 23.1443 5.92072 20.9026 7.93322 19.9793C13.2032 17.5609 16.0224 14.0401 18.2307 9.54092C18.9307 8.11592 19.4432 6.70009 20.1382 4.77842C20.3132 4.29509 20.4991 3.78009 20.7032 3.22509ZM22.8557 3.67842C22.7643 3.74393 22.6956 3.83626 22.6591 3.94259C22.4666 4.46759 22.2866 4.96342 22.1157 5.43676C21.4157 7.37426 20.8557 8.92176 20.1016 10.4593C17.7424 15.2643 14.6199 19.2034 8.80156 21.8726C7.58489 22.4309 6.94989 23.7084 7.26989 24.8576L8.29739 28.5518C8.48675 29.2323 8.85476 29.8497 9.36324 30.34C9.87171 30.8303 10.5021 31.1756 11.1891 31.3401L22.9141 34.1484C24.3352 34.4888 25.8329 34.2628 27.0903 33.5182C28.3477 32.7736 29.266 31.569 29.6507 30.1593L32.4291 19.9784C32.5218 19.6384 32.535 19.2817 32.4674 18.9358C32.3998 18.5899 32.2534 18.2643 32.0395 17.9842C31.8257 17.7041 31.5501 17.4772 31.2342 17.3209C30.9183 17.1647 30.5706 17.0834 30.2182 17.0834H24.5832C24.4158 17.0834 24.2508 17.0431 24.1023 16.9658C23.9538 16.8886 23.826 16.7766 23.73 16.6395C23.6339 16.5024 23.5723 16.3441 23.5504 16.1781C23.5284 16.0121 23.5469 15.8433 23.6041 15.6859C24.3407 13.6593 24.9891 10.7401 24.9682 8.22509C24.9582 6.96592 24.7799 5.88676 24.4232 5.08759C24.0782 4.31592 23.5932 3.85092 22.9307 3.65426C22.9199 3.65176 22.9166 3.65176 22.9124 3.65259C22.8921 3.65721 22.8728 3.6657 22.8557 3.67759V3.67842Z" fill="#333333"/>
</svg>
