<?xml version="1.0" encoding="UTF-8"?>
<svg version="1.1" xmlns="http://www.w3.org/2000/svg" width="500" height="500">
<path d="M0 0 C165 0 330 0 500 0 C500 165 500 330 500 500 C335 500 170 500 0 500 C0 335 0 170 0 0 Z " fill="#010101" transform="translate(0,0)"/>
<path d="M0 0 C165 0 330 0 500 0 C500 165 500 330 500 500 C335 500 170 500 0 500 C0 335 0 170 0 0 Z M156 55 C155.2570166 55.35288086 154.5140332 55.70576172 153.74853516 56.06933594 C132.46946056 66.36117594 114.11837703 80.86737221 97 97 C96.2678125 97.68964844 95.535625 98.37929687 94.78125 99.08984375 C56.21523634 136.50805938 34.61458639 192.07180265 33.64916992 245.20019531 C33.56585022 258.51451575 34.41752491 271.46808097 36.60742188 284.60009766 C36.95089229 286.69979554 37.23801492 288.80855277 37.515625 290.91796875 C45.34062195 343.06598411 78.75201942 392.07818666 120.33984375 423.33203125 C166.62660764 457.4413715 224.40858332 472.72986812 281.55175781 464.39794922 C339.22608624 455.02328275 391.13728744 423.79046977 425.7253418 376.62451172 C458.29917793 330.98984163 472.89346483 272.49972354 464 217 C463.81695312 215.74960938 463.63390625 214.49921875 463.4453125 213.2109375 C456.10656292 168.72543076 433.96021485 129.81982429 403.30273438 97.38183594 C402.25025378 96.2654491 401.20923224 95.13826591 400.171875 94.0078125 C394.43344155 87.95057719 387.61877492 83.04188215 381 78 C380.1028125 77.30777344 379.205625 76.61554688 378.28125 75.90234375 C353.083446 56.96510525 323.17072664 43.23877759 292 38 C290.59203428 37.73657633 289.18450795 37.47079723 287.77734375 37.203125 C286.28929463 36.9258347 284.80101515 36.6497776 283.3125 36.375 C282.64718262 36.25141113 281.98186523 36.12782227 281.29638672 36.00048828 C238.8738186 28.51659506 194.57349775 36.65263017 156 55 Z " fill="#FDFDFD" transform="translate(0,0)"/>
<path d="M0 0 C6.48658848 0.50369342 11.53272325 4.86099558 15.75 9.5 C19.01694764 14.40042146 18.87214718 19.17305771 17.87402344 24.91162109 C17.34458963 27.10535404 16.750488 29.26921955 16.125 31.4375 C15.89981689 32.25871338 15.67463379 33.07992676 15.44262695 33.92602539 C14.50015254 37.35311695 13.5293942 40.77182661 12.55322266 44.18945312 C7.32262638 62.53540866 3.26225641 81.10793207 -0.75 99.75 C-1.00168945 100.91450684 -1.25337891 102.07901367 -1.51269531 103.27880859 C-6.04440718 124.32630873 -10.1929283 145.45817271 -13.06640625 166.80078125 C-13.50561219 170.05753471 -13.99128358 173.30076551 -14.52734375 176.54296875 C-17.81481747 196.55447389 -18.92476082 216.61733089 -19 236.875 C-19.00526703 237.60374329 -19.01053406 238.33248657 -19.01596069 239.08331299 C-19.59292991 253.82876185 -19.59292991 253.82876185 -13.75 266.75 C-10.97082704 267.75484655 -10.97082704 267.75484655 -7.75 266.75 C-0.55581141 262.09017117 3.0777812 255.56516565 6.8125 248.0625 C7.37187256 246.96486328 7.93124512 245.86722656 8.50756836 244.73632812 C12.65487295 236.40917216 15.98220973 227.98583504 18.78515625 219.125 C20.25660106 214.50493483 22.20009235 210.13904619 24.25 205.75 C25.57 206.41 26.89 207.07 28.25 207.75 C26.92547523 214.37931338 25.06050181 220.51123428 22.625 226.8125 C22.27381104 227.72572021 21.92262207 228.63894043 21.56079102 229.57983398 C18.29175184 237.91737675 14.49456189 245.87132019 10.25 253.75 C9.68667969 254.82765625 9.12335938 255.9053125 8.54296875 257.015625 C3.21257475 266.75264449 -3.61617626 276.47627334 -14.1015625 281.0078125 C-20.28942351 282.74187384 -26.19139021 282.83977824 -32.125 280.3125 C-43.49455571 269.21364799 -45.69434395 255.06394967 -46.015625 239.69921875 C-46.02405441 237.27865491 -46.01843556 234.85800831 -46 232.4375 C-45.99395752 231.1378833 -45.98791504 229.8382666 -45.98168945 228.49926758 C-45.85762042 216.1818446 -45.03203518 203.99660151 -43.75 191.75 C-43.64816406 190.75258789 -43.54632813 189.75517578 -43.44140625 188.72753906 C-41.6205196 171.27737536 -38.76496592 154.02566526 -35.75 136.75 C-37.37675937 139.82518174 -38.57535734 142.92431177 -39.7109375 146.2109375 C-40.09362793 147.30680176 -40.47631836 148.40266602 -40.87060547 149.53173828 C-41.28455566 150.71751465 -41.69850586 151.90329102 -42.125 153.125 C-76.04165461 248.9417306 -76.04165461 248.9417306 -102.625 263.6875 C-108.37277336 266.30486729 -113.08964031 267.07551231 -119.1015625 264.8984375 C-129.02026979 260.02201619 -133.86588701 250.36846559 -137.375 240.3125 C-140.83757861 229.34139495 -141.90435829 218.57689522 -141.91796875 207.109375 C-141.92129715 206.10650452 -141.92462555 205.10363403 -141.92805481 204.07037354 C-141.93309439 201.95251927 -141.93546406 199.83465713 -141.93530273 197.71679688 C-141.93746541 194.55063946 -141.95558711 191.38484485 -141.97460938 188.21875 C-142.01851181 172.22701415 -140.76929391 156.60015186 -138.75 140.75 C-139.2346875 141.87535156 -139.719375 143.00070313 -140.21875 144.16015625 C-160.81503957 191.54148688 -160.81503957 191.54148688 -183.9375 201.0625 C-192.95170022 202.68801151 -201.90947023 203.04809857 -209.75 197.75 C-213.79650105 194.22202044 -216.1665463 189.83371978 -217.75 184.75 C-217.97891677 181.06742582 -217.92985738 177.43374553 -217.75 173.75 C-215.8125 173.1875 -215.8125 173.1875 -213.75 172.75 C-211.48695452 175.01304548 -211.78241726 179.89959593 -211.34765625 182.96484375 C-210.9868005 185.87520618 -210.9868005 185.87520618 -208.75 187.75 C-201.28860533 188.97782444 -195.33847255 187.97286912 -189.12109375 183.6953125 C-168.47174654 166.75400292 -160.72457409 137.44899305 -152.75 112.9375 C-152.40272354 111.87722595 -152.40272354 111.87722595 -152.0484314 110.79553223 C-144.27132469 86.91787063 -134.65625872 50.71582399 -146.75195312 26.76611328 C-147.71400549 25.0723412 -148.72768413 23.40809495 -149.75 21.75 C-156.33952856 21.75 -159.21232563 24.51086624 -163.83203125 29.03515625 C-165.75 30.75 -165.75 30.75 -167.75 30.75 C-168.14058594 31.62785156 -168.14058594 31.62785156 -168.5390625 32.5234375 C-169.82962825 34.89641323 -171.24194138 36.44426901 -173.125 38.375 C-183.53348617 49.89598741 -191.4237686 63.87883913 -198.60498047 77.57373047 C-199.35030704 78.99032772 -200.10662749 80.40121263 -200.87548828 81.80517578 C-207.6783396 94.2755561 -210.29671838 106.84562794 -212.75 120.75 C-213.82354388 126.75176601 -214.90998001 132.7512073 -216 138.75 C-216.14545258 139.55277374 -216.29090515 140.35554749 -216.44076538 141.18264771 C-223.24629567 178.60539256 -231.64292951 216.30997388 -243.08251953 252.60595703 C-244.24763563 256.348477 -245.3386227 260.11261605 -246.4375 263.875 C-246.84634275 265.25911796 -247.25519636 266.6432327 -247.6640625 268.02734375 C-248.32269917 270.28518817 -248.9673434 272.54726434 -249.5859375 274.81640625 C-252.2691526 284.49617686 -257.31039425 290.35024641 -265.75 295.625 C-269.30248185 296.95718069 -271.98490805 297.11202807 -275.75 296.75 C-277.75 294.75 -277.75 294.75 -278.0703125 291.1640625 C-277.94339997 286.38225647 -276.4278467 282.50494499 -274.625 278.125 C-270.87772533 268.48373257 -268.10585869 258.73135962 -265.52246094 248.72363281 C-264.73268007 245.68332592 -263.91918451 242.65011676 -263.1015625 239.6171875 C-248.0767965 183.42756332 -238.74547571 125.85007336 -229.8072052 68.43675232 C-229.13931257 64.15990081 -228.4284559 59.89505515 -227.671875 55.6328125 C-226.85320752 50.79136775 -226.31451512 45.94522701 -225.8203125 41.0625 C-225.74245514 40.30421906 -225.66459778 39.54593811 -225.5843811 38.76467896 C-225.26349521 35.62602031 -224.94377115 32.48760432 -224.65087891 29.34619141 C-224.43176361 27.02052731 -224.19046187 24.69804465 -223.9453125 22.375 C-223.88473663 21.66770752 -223.82416077 20.96041504 -223.76174927 20.23168945 C-223.39676177 16.93802941 -222.89750761 14.94576842 -220.88671875 12.27709961 C-218.75 10.75 -218.75 10.75 -215.3671875 10.69140625 C-211.10401016 11.93905318 -209.05583106 13.61680852 -205.875 16.6875 C-204.92882812 17.58339844 -203.98265625 18.47929688 -203.0078125 19.40234375 C-198.8750717 23.69953617 -199.36993384 27.88505063 -199.453125 33.5859375 C-199.87026658 43.98468115 -201.76216706 54.33285826 -203.29248047 64.61279297 C-203.83312003 68.31995322 -204.30769383 72.02997236 -204.75 75.75 C-204.21632813 74.76902344 -203.68265625 73.78804688 -203.1328125 72.77734375 C-175.10801969 21.77681089 -175.10801969 21.77681089 -151.75 13.75 C-146.33566493 12.81649395 -143.10813597 14.11709346 -138.73046875 17.1484375 C-128.04495857 25.78957986 -122.85686342 38.89569165 -121.34765625 52.33203125 C-121.09938274 55.47116074 -120.89501993 58.60456779 -120.75 61.75 C-119.079375 61.564375 -119.079375 61.564375 -117.375 61.375 C-111.54631053 61.36462867 -107.29004183 64.34295976 -102.75 67.75 C-98.58456203 72.11863006 -97.49980872 75.44308438 -97.58496094 81.48339844 C-97.88117211 85.55148212 -98.8943174 89.42582424 -99.875 93.375 C-104.67396564 113.64583086 -109.02418174 134.06863123 -111.40161133 154.78027344 C-111.66625862 157.0361737 -111.95729464 159.28899666 -112.26049805 161.54003906 C-113.7871185 173.31431961 -114.09061568 184.98175054 -114.06567383 196.84667969 C-114.06248983 200.01010912 -114.08616427 203.17262108 -114.11132812 206.3359375 C-114.27169893 227.44351295 -114.27169893 227.44351295 -106.4375 246.6875 C-103.59506638 248.47718043 -102.0899764 248.29654159 -98.75 247.75 C-88.56337464 244.11191951 -84.39270348 235.8360903 -79.75 226.75 C-79.25016602 225.78707031 -78.75033203 224.82414063 -78.23535156 223.83203125 C-63.11488953 194.44067289 -51.6241904 163.37333199 -40.94569397 132.13693237 C-39.45581249 127.7810417 -37.93230519 123.43870683 -36.38536072 119.10276794 C-29.53444636 99.84381477 -24.53565573 80.84948312 -20.88371277 60.74519348 C-19.50953207 53.26353069 -17.72246464 45.8941722 -15.87963867 38.515625 C-14.62436663 33.46588341 -13.45668523 28.4204696 -12.44140625 23.31640625 C-12.2295166 22.26678711 -12.01762695 21.21716797 -11.79931641 20.13574219 C-11.40473643 18.15370996 -11.02441004 16.16876097 -10.66162109 14.18066406 C-9.28701148 7.33369258 -7.57218704 1.51443741 0 0 Z " fill="#F1F1F1" transform="translate(374.75,89.25)"/>
<path d="M0 0 C0.33 0 0.66 0 1 0 C1 76.89 1 153.78 1 233 C-76.22 233 -153.44 233 -233 233 C-233 232.67 -233 232.34 -233 232 C-232.06039429 231.90295776 -232.06039429 231.90295776 -231.10180664 231.80395508 C-180.99956063 226.50970414 -136.21366334 210.90335277 -96 180 C-95.11054688 179.32453125 -94.22109375 178.6490625 -93.3046875 177.953125 C-86.15661048 172.39095574 -79.56018847 166.23377909 -73 160 C-72.17113281 159.21367187 -71.34226562 158.42734375 -70.48828125 157.6171875 C-64.83985876 152.11662947 -59.87627749 146.18816941 -55 140 C-54.20722656 139.01257813 -53.41445313 138.02515625 -52.59765625 137.0078125 C-20.58894961 96.45333742 -6.07995048 50.55885084 0 0 Z " fill="#FEFEFE" transform="translate(499,267)"/>
<path d="M0 0 C0.33 0 0.66 0 1 0 C1.10546143 0.79994385 1.21092285 1.5998877 1.31958008 2.42407227 C7.19734419 46.73852282 18.8750298 88.38322544 45.57910156 125.04833984 C47.01306452 127.01794464 48.42432149 129.00262099 49.8359375 130.98828125 C56.6625046 140.45861674 64.24836967 148.99126997 72.390625 157.34814453 C73.7182363 158.71079896 75.0327957 160.08615681 76.34375 161.46484375 C81.49812496 166.79877686 87.18937694 171.4021622 93 176 C93.96550781 176.78246094 94.93101563 177.56492187 95.92578125 178.37109375 C117.93209674 195.84751965 142.68570139 208.41545632 169 218 C169.69254883 218.26006836 170.38509766 218.52013672 171.09863281 218.78808594 C190.32126625 225.99532396 210.68913948 228.83375999 231 231 C231 231.33 231 231.66 231 232 C154.77 232 78.54 232 0 232 C0 155.44 0 78.88 0 0 Z " fill="#FEFEFE" transform="translate(0,268)"/>
<path d="M0 0 C76.56 0 153.12 0 232 0 C232 76.23 232 152.46 232 231 C231.67 231 231.34 231 231 231 C230.91548584 230.23260498 230.83097168 229.46520996 230.74389648 228.67456055 C223.3365078 163.34692239 194.1923209 100.03440812 141.921875 58.3046875 C140.95765625 57.54414062 139.9934375 56.78359375 139 56 C138.03578125 55.21882813 137.0715625 54.43765625 136.078125 53.6328125 C104.36082285 28.43607247 65.18955486 10.94960315 25.24267578 4.37011719 C23.29288815 4.04833643 21.34716799 3.70209542 19.40234375 3.3515625 C12.95792219 2.20403969 6.52652345 1.48820451 0 1 C0 0.67 0 0.34 0 0 Z " fill="#FEFEFE" transform="translate(268,0)"/>
<path d="M0 0 C76.89 0 153.78 0 233 0 C233 0.33 233 0.66 233 1 C232.33282959 1.06469482 231.66565918 1.12938965 230.97827148 1.19604492 C184.91826181 5.78118645 142.9639609 20.26792988 105 47 C104.31019043 47.48339844 103.62038086 47.96679688 102.90966797 48.46484375 C92.72769158 55.66417173 83.57859825 63.69313667 74.65185547 72.390625 C73.28920104 73.7182363 71.91384319 75.0327957 70.53515625 76.34375 C65.20161287 81.49774835 60.59484968 87.18751516 56 93 C55.2059375 93.98871094 54.411875 94.97742188 53.59375 95.99609375 C22.09256125 135.92085988 6.32028815 181.9537411 1 232 C0.67 232 0.34 232 0 232 C0 155.44 0 78.88 0 0 Z " fill="#FEFEFE" transform="translate(0,0)"/>
<path d="M0 0 C0.72481567 -0.00367584 1.44963135 -0.00735168 2.19641113 -0.01113892 C12.57241613 -0.03870175 22.61298718 0.81062647 32.875 2.3125 C34.45015381 2.53135864 34.45015381 2.53135864 36.05712891 2.75463867 C78.32137753 8.77879221 118.09915772 26.35647704 151.875 52.3125 C153.20917969 53.32570313 153.20917969 53.32570313 154.5703125 54.359375 C169.11437413 65.6766191 182.50562042 78.83705281 193.875 93.3125 C194.66648437 94.29863281 195.45796875 95.28476563 196.2734375 96.30078125 C221.76308053 128.58498212 238.72315306 166.84688861 245.875 207.3125 C246.02743164 208.17069336 246.17986328 209.02888672 246.33691406 209.91308594 C251.2535502 238.97752028 249.7777054 268.38083732 244.875 297.3125 C244.64569476 298.77341576 244.41650435 300.23434955 244.1875 301.6953125 C238.47018662 334.21253236 223.69002502 366.7323962 204.29589844 393.36083984 C202.86193548 395.33044464 201.45067851 397.31512099 200.0390625 399.30078125 C192.75692603 409.40359337 184.5597831 418.40503015 175.875 427.3125 C175.02808594 428.199375 174.18117188 429.08625 173.30859375 430 C167.87800624 435.59573954 161.99256363 440.48714901 155.875 445.3125 C154.91078125 446.09367187 153.9465625 446.87484375 152.953125 447.6796875 C132.44751221 463.96967939 109.40463039 476.3017069 84.875 485.3125 C83.96153809 485.65555176 83.04807617 485.99860352 82.10693359 486.35205078 C65.97469967 492.35145887 49.8742174 495.7763155 32.875 498.3125 C31.36067339 498.56117544 29.84634995 498.80987013 28.33203125 499.05859375 C-32.61328635 508.20258947 -96.35554976 489.35732678 -146.125 454.3125 C-146.81480957 453.82910156 -147.50461914 453.34570312 -148.21533203 452.84765625 C-159.03613355 445.19663683 -168.64631258 436.55422023 -178.125 427.3125 C-179.011875 426.46558594 -179.89875 425.61867188 -180.8125 424.74609375 C-186.40782314 419.31591035 -191.30279577 413.43204852 -196.125 407.3125 C-196.91777344 406.32507813 -197.71054688 405.33765625 -198.52734375 404.3203125 C-226.13909506 369.33670341 -242.76741544 328.2711579 -249.125 284.3125 C-249.30305176 283.10634033 -249.48110352 281.90018066 -249.66455078 280.6574707 C-251.04662835 270.83920694 -251.52670695 261.15949268 -251.5 251.25 C-251.49945618 250.47991608 -251.49891235 249.70983215 -251.49835205 248.91641235 C-251.42107388 224.80902181 -248.16853704 201.4153015 -241.125 178.3125 C-240.89055176 177.52133789 -240.65610352 176.73017578 -240.41455078 175.91503906 C-231.83977053 147.2436849 -217.3266302 120.92629635 -199.125 97.3125 C-198.48949219 96.48105469 -197.85398438 95.64960937 -197.19921875 94.79296875 C-185.80551524 80.19110028 -172.67359422 66.75056934 -158.125 55.3125 C-157.16207031 54.53261719 -156.19914062 53.75273438 -155.20703125 52.94921875 C-133.20477877 35.46453902 -108.44021917 22.89737898 -82.125 13.3125 C-81.43245117 13.05243164 -80.73990234 12.79236328 -80.02636719 12.52441406 C-54.51870731 2.96069967 -27.06113671 0.06538077 0 0 Z M-170.296875 71.51513672 C-172.18376377 73.37027496 -174.0909042 75.20290156 -176 77.03515625 C-184.1549457 84.93733854 -191.39372019 93.17496916 -198.125 102.3125 C-198.54587891 102.87259766 -198.96675781 103.43269531 -199.40039062 104.00976562 C-225.43921798 138.6882039 -240.56639741 179.47406687 -246.125 222.3125 C-246.4034375 224.2615625 -246.4034375 224.2615625 -246.6875 226.25 C-247.40688977 232.9517976 -247.31099681 239.70590669 -247.31030273 246.43847656 C-247.31246945 248.77948757 -247.33061956 251.12001069 -247.34960938 253.4609375 C-247.38881371 263.8897031 -246.57253415 273.98945301 -245.125 284.3125 C-244.99488525 285.30894531 -244.86477051 286.30539062 -244.73071289 287.33203125 C-236.688342 346.647929 -203.1860268 405.45440497 -155.8125 442.375 C-154.14771365 443.63777624 -152.47180627 444.88132941 -150.78125 446.109375 C-149.09096109 447.33722638 -147.42040531 448.58902159 -145.75 449.84375 C-114.70632429 472.88931217 -77.40453401 488.28569169 -39.18603516 494.00390625 C-37.21910751 494.29840951 -35.25588517 494.61735053 -33.29296875 494.9375 C-11.42928136 498.15053019 13.08891455 497.92199957 34.875 494.3125 C36.02452148 494.1271167 36.02452148 494.1271167 37.19726562 493.93798828 C78.96237256 486.96304633 119.00671872 470.13506115 151.875 443.3125 C152.87015625 442.52101563 153.8653125 441.72953125 154.890625 440.9140625 C168.80453384 429.65828724 182.18478067 416.68900186 192.875 402.3125 C193.34534668 401.69681152 193.81569336 401.08112305 194.30029297 400.44677734 C212.75734363 376.24090332 225.17321247 350.02917738 234.875 321.3125 C235.11234863 320.61527832 235.34969727 319.91805664 235.59423828 319.19970703 C239.08018121 308.75327952 240.75270858 297.85591337 242.45214844 287.00439453 C242.70666721 285.38411511 242.96814441 283.76487513 243.24316406 282.14794922 C251.24854688 234.8445006 240.72142302 183.86266647 219.875 141.3125 C219.33987793 140.21349365 219.33987793 140.21349365 218.79394531 139.09228516 C208.06868658 117.32285561 193.67259302 97.77194076 176.875 80.3125 C176.27526367 79.68553223 175.67552734 79.05856445 175.05761719 78.41259766 C166.21621729 69.21745277 157.15638924 60.86082444 146.875 53.3125 C145.7460548 52.46489563 144.61714857 51.61723934 143.48828125 50.76953125 C114.80333814 29.49722779 80.87960117 15.17614729 45.875 8.3125 C44.49248047 8.01472656 44.49248047 8.01472656 43.08203125 7.7109375 C40.35338978 7.15777872 37.62954702 6.71789982 34.875 6.3125 C33.67746094 6.126875 32.47992188 5.94125 31.24609375 5.75 C-41.19301897 -4.26663082 -118.10066279 20.12739845 -170.296875 71.51513672 Z " fill="#111111" transform="translate(251.125,-0.3125)"/>
<path d="M0 0 C1.20220203 3.53094302 0.79532349 6.12898982 0.0625 9.75 C-0.13214844 10.73484375 -0.32679688 11.7196875 -0.52734375 12.734375 C-0.68332031 13.48203125 -0.83929688 14.2296875 -1 15 C-1.99 14.67 -2.98 14.34 -4 14 C-3.00956295 9.16371695 -2.04301154 4.52381127 0 0 Z " fill="#323232" transform="translate(339,222)"/>
<path d="M0 0 C0.33 0 0.66 0 1 0 C0.67 3.3 0.34 6.6 0 10 C-0.99 9.67 -1.98 9.34 -3 9 C-2.01 6.03 -1.02 3.06 0 0 Z " fill="#3B3B3B" transform="translate(236,228)"/>
</svg>
