<svg width="56" height="56" viewBox="0 0 56 56" fill="none" xmlns="http://www.w3.org/2000/svg">
<path d="M16.74 38V38.5H17.24H20.376H20.876V38V18.12V17.62H20.376H17.24H16.74V18.12V38ZM24.8689 17.62H24.3689V18.12V38V38.5H24.8689H34.3609C35.5425 38.5 36.6303 38.2832 37.6161 37.8409C38.6228 37.3976 39.441 36.7564 40.0564 35.9153C40.6867 35.0539 40.9929 34.0326 40.9929 32.876C40.9929 31.5149 40.6309 30.3311 39.8836 29.3543C39.359 28.6553 38.7093 28.1121 37.9411 27.7251C38.5067 27.3172 38.9708 26.803 39.3287 26.184C39.8761 25.251 40.1529 24.2496 40.1529 23.188C40.1529 22.2881 39.9478 21.4123 39.5443 20.565C39.1374 19.7104 38.5628 19.0098 37.8213 18.4733C37.0539 17.899 36.1441 17.62 35.1169 17.62H24.8689ZM33.7729 26.188H28.5049V21.336H33.9409C34.5438 21.336 35.0215 21.554 35.4111 22.0035L35.411 22.0035L35.4166 22.0098C35.8052 22.4432 36.0169 23.0169 36.0169 23.776C36.0169 24.5011 35.7959 25.0742 35.3702 25.5318C34.9466 25.969 34.4261 26.188 33.7729 26.188ZM36.1019 30.4486L36.1019 30.4487L36.1077 30.4555C36.5523 30.9795 36.7729 31.583 36.7729 32.288C36.7729 32.9814 36.5419 33.5674 36.0709 34.0711C35.6077 34.5484 35.0485 34.784 34.3609 34.784H28.5049V29.708H34.5569C35.1883 29.708 35.6912 29.9466 36.1019 30.4486ZM55.5 28C55.5 43.1878 43.1878 55.5 28 55.5C12.8122 55.5 0.5 43.1878 0.5 28C0.5 12.8122 12.8122 0.5 28 0.5C43.1878 0.5 55.5 12.8122 55.5 28Z" fill="#BFD4D9" stroke="#7EA9B4"/>
</svg>
