<svg width="68" height="68" viewBox="0 0 68 68" fill="none" xmlns="http://www.w3.org/2000/svg">
<path d="M42.5 25.5C43.0868 25.5 43.5625 25.0243 43.5625 24.4375C43.5625 23.8507 43.0868 23.375 42.5 23.375C41.9132 23.375 41.4375 23.8507 41.4375 24.4375C41.4375 25.0243 41.9132 25.5 42.5 25.5Z" fill="black" fill-opacity="0.87"/>
<path d="M40.375 19.125H44.625V21.25H40.375V19.125Z" fill="black" fill-opacity="0.87"/>
<path d="M53.125 25.5C53.7118 25.5 54.1875 25.0243 54.1875 24.4375C54.1875 23.8507 53.7118 23.375 53.125 23.375C52.5382 23.375 52.0625 23.8507 52.0625 24.4375C52.0625 25.0243 52.5382 25.5 53.125 25.5Z" fill="black" fill-opacity="0.87"/>
<path d="M51 19.125H55.25V21.25H51V19.125Z" fill="black" fill-opacity="0.87"/>
<path d="M46.75 25.5H48.875V29.75H46.75V25.5Z" fill="black" fill-opacity="0.87"/>
<path d="M62.6055 44.6795L53.125 40.7293V38.0223C55.0416 37.0438 56.6509 35.5553 57.7757 33.7208C58.9005 31.8863 59.4972 29.7769 59.5 27.625V16.8042C60.1197 16.5859 60.6567 16.1812 61.0371 15.6455C61.4176 15.1098 61.623 14.4695 61.625 13.8125V13.1069C61.6217 10.1954 60.4636 7.40398 58.4048 5.34518C56.346 3.28639 53.5546 2.1283 50.6431 2.125H44.625C43.5926 2.12676 42.583 2.42912 41.7195 2.99517C40.8561 3.56121 40.1762 4.36643 39.7628 5.3125H39.3125C37.904 5.31415 36.5538 5.87439 35.5578 6.87032C34.5619 7.86625 34.0017 9.21654 34 10.625V14.875C34.0006 15.4384 34.2247 15.9785 34.6231 16.3769C35.0215 16.7753 35.5616 16.9994 36.125 17V27.625C36.1278 29.7769 36.7245 31.8863 37.8493 33.7208C38.9741 35.5553 40.5834 37.0438 42.5 38.0223V40.7293L34.6537 43.9988L35.4713 45.9599L42.7401 42.9311C43.0567 44.0318 43.7228 44.9996 44.6378 45.6886C45.5529 46.3775 46.6671 46.75 47.8125 46.75C48.9579 46.75 50.0721 46.3775 50.9871 45.6886C51.9022 44.9996 52.5682 44.0318 52.8849 42.9311L61.7879 46.6411C62.3696 46.8819 62.8667 47.2902 63.216 47.814C63.5653 48.3378 63.7512 48.9536 63.75 49.5832V60.5625H59.5V54.1875H57.375V65.875H59.5V62.6875H63.75V65.875H65.875V49.5832C65.8769 48.5339 65.5672 47.5077 64.9852 46.6347C64.4031 45.7617 63.5749 45.0812 62.6055 44.6795V44.6795ZM41.4375 7.4375C41.4384 6.59241 41.7745 5.78219 42.3721 5.18462C42.9697 4.58704 43.7799 4.25092 44.625 4.25H50.6431C52.9913 4.25257 55.2426 5.18654 56.903 6.84698C58.5635 8.50742 59.4974 10.7587 59.5 13.1069V13.8125C59.4997 14.0942 59.3877 14.3643 59.1885 14.5635C58.9893 14.7627 58.7192 14.8747 58.4375 14.875H46.75C45.3415 14.8733 43.9913 14.3131 42.9953 13.3172C41.9994 12.3213 41.4392 10.971 41.4375 9.5625V7.4375ZM36.125 10.625C36.1259 9.77991 36.462 8.96969 37.0596 8.37212C37.6572 7.77454 38.4674 7.43842 39.3125 7.4375V13.8125C39.3122 14.0942 39.2002 14.3643 39.001 14.5635C38.8018 14.7627 38.5317 14.8747 38.25 14.875H36.125V10.625ZM51 41.4375C51 42.2829 50.6642 43.0936 50.0664 43.6914C49.4686 44.2892 48.6579 44.625 47.8125 44.625C46.9671 44.625 46.1564 44.2892 45.5586 43.6914C44.9608 43.0936 44.625 42.2829 44.625 41.4375V38.8594C46.7071 39.4635 48.9179 39.4635 51 38.8594V41.4375ZM47.8125 37.1875C45.2772 37.1846 42.8466 36.1763 41.0539 34.3836C39.2612 32.5909 38.2529 30.1603 38.25 27.625V17C38.9515 16.9978 39.6327 16.764 40.1876 16.3349C40.7426 15.9058 41.1403 15.3054 41.3189 14.627C42.0122 15.375 42.8524 15.9718 43.7869 16.3801C44.7214 16.7884 45.7302 16.9995 46.75 17H57.375V27.625C57.3721 30.1603 56.3637 32.5909 54.5711 34.3836C52.7784 36.1763 50.3478 37.1846 47.8125 37.1875Z" fill="black" fill-opacity="0.87"/>
<path d="M38.25 65.875V54.1875H36.125V60.5625H31.875V57.375H29.75V65.875H31.875V62.6875H36.125V65.875H38.25Z" fill="black" fill-opacity="0.87"/>
<path d="M44.5273 30.965L43.4316 32.7849C44.7546 33.5799 46.2689 33.9999 47.8124 33.9999C49.3558 33.9999 50.8702 33.5799 52.1931 32.7849L51.0974 30.965C50.1013 31.5494 48.9673 31.8576 47.8124 31.8576C46.6574 31.8576 45.5234 31.5494 44.5273 30.965V30.965Z" fill="black" fill-opacity="0.87"/>
<path d="M8.5 52.0625V65.875H10.625V55.25H28.6875C29.5326 55.2491 30.3428 54.913 30.9404 54.3154C31.538 53.7178 31.8741 52.9076 31.875 52.0625V11.6875C31.8741 10.8424 31.538 10.0322 30.9404 9.43462C30.3428 8.83704 29.5326 8.50092 28.6875 8.5H2.125V10.625H5.3125V43.5625C5.31342 44.4076 5.64954 45.2178 6.24712 45.8154C6.84469 46.413 7.65491 46.7491 8.5 46.75H29.75V52.0625C29.7497 52.3442 29.6377 52.6143 29.4385 52.8135C29.2393 53.0127 28.9692 53.1247 28.6875 53.125H10.625V52.0625C10.6241 51.2174 10.288 50.4072 9.69038 49.8096C9.09281 49.212 8.28259 48.8759 7.4375 48.875H2.125V51H7.4375C7.71921 51.0003 7.98929 51.1123 8.18849 51.3115C8.38769 51.5107 8.49972 51.7808 8.5 52.0625V52.0625ZM8.5 44.625C8.21829 44.6247 7.94821 44.5127 7.74901 44.3135C7.54981 44.1143 7.43778 43.8442 7.4375 43.5625V10.625H28.6875C28.9692 10.6253 29.2393 10.7373 29.4385 10.9365C29.6377 11.1357 29.7497 11.4058 29.75 11.6875V44.625H8.5Z" fill="black" fill-opacity="0.87"/>
<path d="M25.5 30.8125H24.6998L26.3477 23.3932C26.5318 22.5767 26.3852 21.7206 25.9399 21.0119L21.4015 13.7492C21.2111 13.4427 20.9454 13.1899 20.6298 13.015C20.3141 12.8401 19.959 12.7489 19.5981 12.75H18.6519C18.2911 12.7488 17.9361 12.84 17.6206 13.0149C17.3051 13.1898 17.0396 13.4426 16.8496 13.7492L12.3091 21.0124C11.8649 21.7209 11.7183 22.5761 11.9013 23.3921L13.5501 30.8125H12.75C12.1866 30.8132 11.6465 31.0372 11.2481 31.4356C10.8497 31.834 10.6256 32.3741 10.625 32.9375V35.0625C10.6256 35.6259 10.8497 36.166 11.2481 36.5644C11.6465 36.9628 12.1866 37.1869 12.75 37.1875V40.375C12.7506 40.9384 12.9747 41.4785 13.3731 41.8769C13.7715 42.2753 14.3116 42.4994 14.875 42.5H23.375C23.9384 42.4994 24.4785 42.2753 24.8769 41.8769C25.2753 41.4785 25.4994 40.9384 25.5 40.375V37.1875C26.0634 37.1869 26.6035 36.9628 27.0019 36.5644C27.4003 36.166 27.6244 35.6259 27.625 35.0625V32.9375C27.6244 32.3741 27.4003 31.834 27.0019 31.4356C26.6035 31.0372 26.0634 30.8132 25.5 30.8125V30.8125ZM19.125 22.3125C19.3351 22.3125 19.5406 22.3748 19.7153 22.4916C19.89 22.6083 20.0262 22.7743 20.1066 22.9684C20.187 23.1626 20.2081 23.3762 20.1671 23.5823C20.1261 23.7884 20.0249 23.9777 19.8763 24.1263C19.7277 24.2749 19.5384 24.3761 19.3323 24.4171C19.1262 24.4581 18.9125 24.4371 18.7184 24.3566C18.5243 24.2762 18.3583 24.14 18.2416 23.9653C18.1248 23.7906 18.0625 23.5852 18.0625 23.375C18.0628 23.0933 18.1748 22.8232 18.374 22.624C18.5732 22.4248 18.8433 22.3128 19.125 22.3125V22.3125ZM14.1113 22.1377L18.0625 15.8177V20.3833C17.3536 20.6339 16.7561 21.1271 16.3756 21.7757C15.9952 22.4242 15.8563 23.1864 15.9834 23.9275C16.1106 24.6686 16.4956 25.3409 17.0705 25.8255C17.6454 26.3102 18.3731 26.576 19.125 26.576C19.8769 26.576 20.6046 26.3102 21.1795 25.8255C21.7544 25.3409 22.1394 24.6686 22.2666 23.9275C22.3937 23.1864 22.2548 22.4242 21.8744 21.7757C21.4939 21.1271 20.8964 20.6339 20.1875 20.3833V15.8164L24.1376 22.1372C24.2864 22.3735 24.3353 22.6592 24.2736 22.9315L22.5223 30.8125H15.7276L13.9754 22.9304C13.9148 22.6586 13.9636 22.3738 14.1113 22.1377V22.1377ZM14.875 40.375V37.1875H23.375L23.3761 40.375H14.875ZM25.5 35.0625H12.75V32.9375H25.5L25.5011 35.0625H25.5Z" fill="black" fill-opacity="0.87"/>
</svg>
