<svg width="70" height="70" viewBox="0 0 70 70" fill="none" xmlns="http://www.w3.org/2000/svg">
<g clip-path="url(#clip0_801_260)">
<path d="M54.378 8.45553C54.378 7.71013 53.7658 7.10565 53.0108 7.10565H53.003C52.248 7.10565 51.6396 7.71013 51.6396 8.45553C51.6396 9.20094 52.2557 9.80541 53.0107 9.80541C53.7656 9.80541 54.378 9.20094 54.378 8.45553V8.45553Z" fill="black" fill-opacity="0.87"/>
<path d="M61.7569 8.45553C61.7569 7.71013 61.1447 7.10565 60.3897 7.10565H60.3819C59.627 7.10565 59.0186 7.71013 59.0186 8.45553C59.0186 9.20094 59.6346 9.80541 60.3896 9.80541C61.1445 9.80541 61.7569 9.20094 61.7569 8.45553V8.45553Z" fill="black" fill-opacity="0.87"/>
<path d="M46.9996 8.45553C46.9996 7.71013 46.3873 7.10565 45.6324 7.10565H45.6246C44.8696 7.10565 44.2612 7.71013 44.2612 8.45553C44.2612 9.20094 44.8773 9.80541 45.6322 9.80541C46.3872 9.80541 46.9996 9.20094 46.9996 8.45553V8.45553Z" fill="black" fill-opacity="0.87"/>
<path d="M8.23926 8.45553C8.23926 9.20094 8.85135 9.80541 9.60645 9.80541H30.1501C30.9052 9.80541 31.5173 9.20094 31.5173 8.45553C31.5173 7.71013 30.9052 7.10565 30.1501 7.10565H9.60645C8.85135 7.10565 8.23926 7.70999 8.23926 8.45553V8.45553Z" fill="black" fill-opacity="0.87"/>
<path d="M65.6139 0H22.8177C22.0626 0 21.4505 0.604477 21.4505 1.34988C21.4505 2.09529 22.0626 2.69976 22.8177 2.69976H65.6139C66.5246 2.69976 67.2656 3.4314 67.2656 4.33055V14.2149H2.73438V4.33055C2.73438 3.4314 3.47539 2.69976 4.38621 2.69976H10.5365C11.2916 2.69976 11.9037 2.09529 11.9037 1.34988C11.9037 0.604477 11.2916 0 10.5365 0H4.38621C1.96766 0 0 1.94275 0 4.33055V54.3144C0 56.7022 1.96766 58.6449 4.38621 58.6449H21.4758C24.6958 61.6526 28.9399 63.6006 33.6308 63.9198V67.764C33.6308 68.5094 34.2429 69.1139 34.9979 69.1139C35.753 69.1139 36.3651 68.5094 36.3651 67.764V63.9198C41.057 63.6006 45.302 61.6527 48.5227 58.6449H65.6137C68.0321 58.6449 69.9997 56.7022 69.9997 54.3144V4.33055C70 1.94275 68.0323 0 65.6139 0V0ZM18.0936 45.8688H22.5601C23.1942 51.6069 27.8212 56.1767 33.6309 56.8031V61.2132C25.3672 60.5591 18.7559 54.0298 18.0936 45.8688V45.8688ZM47.4398 43.1691C46.8053 37.4329 42.1769 32.8645 36.3653 32.2384V27.8285C44.6307 28.4824 51.2437 35.01 51.9062 43.1691H47.4398ZM34.9981 54.1775C29.6062 54.1775 25.2196 49.8446 25.2196 44.519C25.2196 39.1953 29.6062 34.8642 34.9981 34.8642C40.3922 34.8642 44.7804 39.1953 44.7804 44.519C44.7804 49.8446 40.392 54.1775 34.9981 54.1775ZM33.6309 32.2384C27.8213 32.8646 23.1945 37.433 22.5602 43.1691H18.0938C18.7562 35.0101 25.3673 28.4825 33.631 27.8285V32.2384H33.6309ZM36.3653 56.8031C42.177 56.1768 46.8055 51.6069 47.4398 45.8688H51.9062C51.2438 54.0299 44.6309 60.5592 36.3653 61.2132V56.8031ZM65.6139 55.9452H50.9275C53.0441 53.0764 54.3862 49.6172 54.6477 45.8688H58.5413C59.2963 45.8688 59.9085 45.2644 59.9085 44.519C59.9085 43.7735 59.2963 43.1691 58.5413 43.1691H54.6477C53.9741 33.5207 46.1394 25.7866 36.3654 25.1218V21.2776C36.3654 20.5322 35.7532 19.9278 34.9982 19.9278C34.2433 19.9278 33.631 20.5322 33.631 21.2776V25.1218C23.8591 25.7868 16.0259 33.5207 15.3524 43.1691H11.4588C10.7037 43.1691 10.0916 43.7735 10.0916 44.519C10.0916 45.2644 10.7037 45.8688 11.4588 45.8688H15.3523C15.6138 49.6173 16.9556 53.0765 19.0719 55.9452H4.38621C3.47539 55.9452 2.73438 55.2135 2.73438 54.3144V16.9146H67.2656V54.3144C67.2656 55.2135 66.5246 55.9452 65.6139 55.9452Z" fill="black" fill-opacity="0.87"/>
<path d="M39.7086 40.5341C39.1303 40.0554 38.2677 40.1302 37.7826 40.7019L33.6584 45.5619L32.0486 44.2158C31.4727 43.734 30.6098 43.8046 30.1217 44.3734C29.6338 44.9424 29.7053 45.794 30.2814 46.2759L32.9399 48.4991C33.1878 48.7063 33.5011 48.8188 33.8234 48.8188C34.2162 48.8187 34.5655 48.6577 34.8715 48.3359L39.8785 42.4358C40.3635 41.8644 40.2874 41.0129 39.7086 40.5341V40.5341Z" fill="black" fill-opacity="0.87"/>
<path d="M16.6792 2.69976H16.683C17.4381 2.69976 18.0483 2.09529 18.0483 1.34988C18.0483 0.604477 17.4343 0 16.6792 0C15.9241 0 15.312 0.604477 15.312 1.34988C15.312 2.09529 15.9241 2.69976 16.6792 2.69976V2.69976Z" fill="black" fill-opacity="0.87"/>
</g>
<defs>
<clipPath id="clip0_801_260">
<rect width="70" height="69.1139" fill="white"/>
</clipPath>
</defs>
</svg>
