<svg width="64" height="64" viewBox="0 0 64 64" fill="none" xmlns="http://www.w3.org/2000/svg">
<g clip-path="url(#clip0_801_235)">
<path d="M9.12598 9.11823C8.26435 9.11823 7.56348 9.81023 7.56348 10.6609V15.5865C7.56348 16.4373 8.26435 17.1293 9.12598 17.1293H40.5595C41.4211 17.1293 42.122 16.4373 42.122 15.5865V10.6609C42.122 9.81023 41.4211 9.11823 40.5595 9.11823H9.12598ZM40.247 15.278H9.43848V10.9695H40.247V15.278Z" fill="black" fill-opacity="0.87"/>
<path d="M19.2034 47.9288C19.7211 47.9288 20.1409 47.5145 20.1409 47.0031C20.1409 46.4918 19.7211 46.0775 19.2034 46.0775H8.50098C7.9831 46.0775 7.56348 46.4918 7.56348 47.0031C7.56348 47.5145 7.9831 47.9288 8.50098 47.9288H19.2034Z" fill="black" fill-opacity="0.87"/>
<path d="M49.6856 25.7513V15.057C49.6856 14.5457 49.2659 14.1314 48.7481 14.1314C48.2302 14.1314 47.8106 14.5457 47.8106 15.057V25.3803C46.9379 25.253 46.0466 25.184 45.1399 25.1802H45.06C44.0669 25.1802 43.0854 25.2571 42.122 25.4063V22.9809C42.122 22.1302 41.4211 21.4382 40.5595 21.4382H9.12613C8.2645 21.4382 7.56362 22.1302 7.56362 22.9809V27.9065C7.56362 28.7572 8.2645 29.4492 9.12613 29.4492H33.0711C32.5961 29.8385 32.137 30.2524 31.696 30.6909C30.7461 31.6353 29.9103 32.6637 29.1926 33.7579H18.875C18.3571 33.7579 17.9375 34.1722 17.9375 34.6835C17.9375 35.1948 18.3571 35.6091 18.875 35.6091H28.1232C27.436 36.9745 26.919 38.4195 26.5831 39.9179H9.43863V35.6091H14.5C15.0178 35.6091 15.4375 35.1948 15.4375 34.6835C15.4375 34.1722 15.0178 33.7579 14.5 33.7579H9.12613C8.2645 33.7579 7.56362 34.4499 7.56362 35.3006V40.2264C7.56362 41.0772 8.2645 41.7692 9.12613 41.7692H26.2644C26.1749 42.5051 26.127 43.2507 26.124 44.0033C26.1039 48.8758 27.9429 53.3309 30.9739 56.6986H2.1875C2.01812 56.6986 1.875 56.5573 1.875 56.3901V2.36818C1.875 2.20095 2.01812 2.05964 2.1875 2.05964H47.4981C47.6674 2.05964 47.8106 2.20095 47.8106 2.36818V10.7374C47.8106 11.2487 48.2302 11.663 48.7481 11.663C49.2659 11.663 49.6856 11.2487 49.6856 10.7374V2.36818C49.6856 1.17745 48.7042 0.208374 47.4981 0.208374H2.1875C0.981375 0.208374 0 1.17733 0 2.36818V56.39C0 57.581 0.981375 58.5498 2.1875 58.5498H32.891C36.165 61.2978 40.3818 62.9627 44.984 62.9815L45.0638 62.9817C50.1076 62.9817 54.8536 61.0247 58.4279 57.4709C62.0003 53.919 63.9791 49.1915 63.9999 44.1589C64.0364 35.3011 57.93 27.8233 49.6856 25.7513V25.7513ZM9.43863 27.5979V23.2893H40.2471V25.7943C38.6841 26.2017 37.1839 26.8063 35.7779 27.5979H9.43863ZM57.0974 56.1665C53.8777 59.3674 49.6043 61.1304 45.0636 61.1304L44.9917 61.1302C35.5831 61.0916 27.9601 53.4118 27.999 44.0106C28.0176 39.4672 29.8031 35.2001 33.0264 31.9953C36.246 28.7941 40.5196 27.0314 45.0601 27.0314H45.1321C54.5408 27.07 62.1636 34.7498 62.1249 44.1513C62.1062 48.6946 60.3206 52.9617 57.0974 56.1665V56.1665Z" fill="black" fill-opacity="0.87"/>
<path d="M58.5606 45.6177C58.051 45.5267 57.5634 45.8612 57.4715 46.364C56.377 52.347 51.158 56.6892 45.062 56.6892C38.1058 56.6892 32.4464 51.0329 32.4464 44.0806C32.4464 37.1285 38.1057 31.4722 45.062 31.4722C48.125 31.4722 51.0783 32.5827 53.3779 34.5989C55.6593 36.5994 57.1438 39.3464 57.5576 42.3342C57.6279 42.8407 58.1003 43.1946 58.6135 43.1258C59.1265 43.0566 59.4855 42.5899 59.4153 42.0833C58.9408 38.658 57.2388 35.5085 54.6228 33.2149C51.9796 30.8975 48.5841 29.6211 45.0619 29.6211C37.0717 29.6211 30.5713 36.1078 30.5713 44.0807C30.5713 52.054 37.0717 58.5406 45.0619 58.5406C52.0658 58.5406 58.0608 53.5581 59.3165 46.6932C59.4088 46.19 59.0701 45.7087 58.5606 45.6177V45.6177Z" fill="black" fill-opacity="0.87"/>
<path d="M45.062 34.6616C44.5441 34.6616 44.1245 35.0759 44.1245 35.5872V44.0806C44.1245 44.5919 44.5441 45.0062 45.062 45.0062H50.8899C51.4076 45.0062 51.8274 44.5919 51.8274 44.0806C51.8274 43.5692 51.4076 43.1549 50.8899 43.1549H45.9995V35.5872C45.9995 35.0759 45.5798 34.6616 45.062 34.6616Z" fill="black" fill-opacity="0.87"/>
</g>
<defs>
<clipPath id="clip0_801_235">
<rect width="64" height="63.1899" fill="white"/>
</clipPath>
</defs>
</svg>
