<svg width="64" height="64" viewBox="0 0 64 64" fill="none" xmlns="http://www.w3.org/2000/svg">
<g clip-path="url(#clip0_801_241)">
<path d="M43.5024 19.3936C42.8112 19.3936 42.25 19.9521 42.25 20.6431C42.25 21.3335 42.8112 21.8931 43.5024 21.8931C44.1952 21.8931 44.7549 21.3335 44.7549 20.6431C44.7549 19.9521 44.1952 19.3936 43.5024 19.3936Z" fill="black" fill-opacity="0.87"/>
<path d="M20.7461 42.105C20.0533 42.105 19.4937 42.665 19.4937 43.355C19.4937 44.0464 20.0533 44.605 20.7461 44.605C21.4374 44.605 21.9985 44.0464 21.9985 43.355C21.9985 42.665 21.4374 42.105 20.7461 42.105Z" fill="black" fill-opacity="0.87"/>
<path d="M62.632 7.68994C62.2093 7.5918 61.765 7.71924 61.4598 8.02686L56.2675 13.25H53.7783L51.038 10.4165V7.89746L56.1559 2.71338C56.4588 2.40674 56.5821 1.96582 56.4818 1.54638C56.382 1.12744 56.0728 0.789548 55.6638 0.651853C54.3781 0.219235 53.0327 -3.4806e-06 51.6643 -3.4806e-06C47.585 -3.4806e-06 43.879 1.89844 41.4965 5.2085C39.2665 8.30713 38.5791 12.1045 39.564 15.7388L30.3384 24.9463L14.9686 9.57129V6.55371C14.9686 6.11475 14.7376 5.70752 14.3604 5.48193L5.50477 0.178219C5.01162 -0.117191 4.38099 -0.0395543 3.97492 0.366208L0.432848 3.90088C0.0267809 4.30664 -0.0510077 4.93604 0.244491 5.42822L5.5576 14.2666C5.78363 14.6431 6.19117 14.8731 6.63099 14.8735L9.65349 14.8745L25.0248 30.2495L15.8345 39.4219C12.1931 38.4395 8.38637 39.1265 5.28021 41.3535C1.96563 43.73 0.0649414 47.4278 0.0649414 51.4991C0.0649414 52.8643 0.284609 54.2076 0.718073 55.4903C0.856527 55.9009 1.1985 56.211 1.6212 56.3086C2.04439 56.4068 2.48813 56.2793 2.7939 55.9717L7.98569 50.7491H10.4886L13.3404 53.5952V56.0933L8.10751 61.2749C7.79929 61.5801 7.6716 62.023 7.76993 62.4454C7.86778 62.8672 8.17845 63.2085 8.58989 63.3467C9.87512 63.7793 11.221 63.9986 12.5889 63.9986C16.6682 63.9986 20.3727 62.1011 22.7543 58.793C24.9857 55.6929 25.674 51.8941 24.6897 48.2598L32.0708 40.8931L33.7616 42.7261L32.9857 43.5C32.4965 43.9883 32.4965 44.7798 32.9857 45.2681C33.4749 45.7559 34.2675 45.7559 34.7572 45.2681L35.4598 44.5669L51.3238 61.7652C51.3355 61.7779 51.3477 61.7901 51.36 61.8023C54.2954 64.732 59.0512 64.733 61.9881 61.8018C64.9167 58.8775 64.9167 54.1192 61.9881 51.1949C61.9754 51.1822 61.9622 51.17 61.949 51.1577L44.6902 35.355L45.3849 34.6616C45.8741 34.1738 45.8741 33.3823 45.3849 32.8941C44.8957 32.4058 44.1031 32.4058 43.6134 32.8941L42.8428 33.6636L41.0028 31.978L48.4196 24.5757C49.4739 24.8569 50.562 24.9995 51.6643 24.9995C58.5703 24.9995 64.1882 19.3921 64.1882 12.5C64.1882 11.1343 63.9686 9.79151 63.5351 8.5083C63.3967 8.09766 63.0547 7.7876 62.632 7.68994V7.68994ZM11.0596 12.7417C10.8247 12.5068 10.5062 12.3872 10.1736 12.3872L7.34087 12.3862L2.89567 4.979L5.05467 2.82422L12.4637 7.26172V10.0889C12.4637 10.4199 12.5953 10.7373 12.8296 10.9717L28.5674 26.7144L26.7959 28.482L11.0596 12.7417ZM42.9172 37.1245L60.2347 52.9805C62.1692 54.9317 62.1633 58.0909 60.2166 60.0347C58.2655 61.982 55.107 61.9878 53.1481 60.0518L37.2323 42.7974L42.9172 37.1245ZM41.0698 35.4326L35.5341 40.9566L33.8433 39.1236L39.2298 33.7471L41.0698 35.4326ZM51.6643 22.4995C50.5689 22.4995 49.4916 22.3242 48.4632 21.9785C48.0126 21.8276 47.5146 21.9439 47.178 22.2793C40.8991 28.5459 27.3697 42.0484 22.3878 47.021C22.0512 47.357 21.9343 47.854 22.0865 48.3042C23.1276 51.3897 22.6295 54.6807 20.7195 57.3345C18.8149 59.9805 15.8511 61.4986 12.5889 61.4986C12.2225 61.4986 11.858 61.4786 11.4969 61.44L15.4749 57.5005C15.7117 57.2662 15.8453 56.9468 15.8453 56.6133V53.0772C15.8453 52.7456 15.7132 52.4278 15.4783 52.1934L11.8927 48.6148C11.6579 48.3804 11.3394 48.2486 11.0072 48.2486H7.46416C7.13001 48.2486 6.81005 48.3819 6.57473 48.6182L2.62805 52.5884C2.58891 52.2281 2.56934 51.8643 2.56934 51.4986C2.56934 48.2422 4.08989 45.2847 6.74156 43.3838C9.40007 41.4776 12.698 40.98 15.79 42.0196C16.2406 42.1714 16.7386 42.0547 17.0752 41.7188C17.1442 41.6504 41.8477 16.9946 41.8653 16.9771C42.2019 16.6411 42.3184 16.1445 42.1667 15.6943C41.1251 12.6089 41.6222 9.31885 43.5307 6.66699C45.4368 4.01855 48.4011 2.5 51.6638 2.5C52.0415 2.5 52.4167 2.52099 52.7885 2.56201L48.8932 6.50781C48.6623 6.7417 48.5331 7.05664 48.5331 7.38477V10.9209C48.5331 11.2451 48.6589 11.5562 48.8844 11.7891L52.3448 15.3677C52.5806 15.6118 52.9059 15.7495 53.246 15.7495H56.789C57.1227 15.7495 57.4426 15.6167 57.678 15.3799L61.6246 11.4102C61.6638 11.7705 61.6833 12.1343 61.6833 12.5C61.6833 18.0137 57.1887 22.4995 51.6643 22.4995V22.4995Z" fill="black" fill-opacity="0.87"/>
<path d="M39.0749 23.2944L23.4022 38.9365C22.9135 39.4243 22.9135 40.2158 23.4022 40.7041C23.8914 41.1924 24.6845 41.1924 25.1737 40.7041L40.8464 25.062C41.3357 24.5742 41.3357 23.7827 40.8464 23.2944C40.3572 22.8062 39.5641 22.8062 39.0749 23.2944V23.2944Z" fill="black" fill-opacity="0.87"/>
<path d="M54.9014 56.5C55.3907 56.9868 56.1837 56.9868 56.673 56.4971C57.1612 56.0083 57.1598 55.2168 56.67 54.7295L45.3809 43.4985C44.8912 43.0112 44.0976 43.0127 43.6098 43.5015C43.1211 43.9907 43.1226 44.7817 43.6123 45.269L54.9014 56.5Z" fill="black" fill-opacity="0.87"/>
</g>
<defs>
<clipPath id="clip0_801_241">
<rect width="64" height="64" fill="white"/>
</clipPath>
</defs>
</svg>
